<svg width="1185" height="320" viewBox="0 0 1185 320" fill="none" xmlns="http://www.w3.org/2000/svg">
<path d="M424.609 101.25L450 180.391L475.312 101.25H511.406V215H483.906V188.438L486.562 134.062L459.062 215H440.938L413.359 133.984L416.016 188.438V215H388.594V101.25H424.609ZM575.312 215C574.375 213.281 573.542 210.755 572.812 207.422C567.969 213.516 561.198 216.562 552.5 216.562C544.531 216.562 537.76 214.167 532.188 209.375C526.615 204.531 523.828 198.464 523.828 191.172C523.828 182.005 527.214 175.078 533.984 170.391C540.755 165.703 550.599 163.359 563.516 163.359H571.641V158.906C571.641 151.146 568.281 147.266 561.562 147.266C555.312 147.266 552.188 150.339 552.188 156.484H525.859C525.859 148.307 529.323 141.667 536.25 136.562C543.229 131.458 552.109 128.906 562.891 128.906C573.672 128.906 582.188 131.536 588.438 136.797C594.688 142.057 597.891 149.271 598.047 158.438V195.859C598.151 203.62 599.349 209.557 601.641 213.672V215H575.312ZM558.828 197.812C562.109 197.812 564.818 197.109 566.953 195.703C569.141 194.297 570.703 192.708 571.641 190.938V177.422H563.984C554.818 177.422 550.234 181.536 550.234 189.766C550.234 192.161 551.042 194.115 552.656 195.625C554.271 197.083 556.328 197.812 558.828 197.812ZM663.828 154.297L655.156 153.672C646.875 153.672 641.562 156.276 639.219 161.484V215H612.891V130.469H637.578L638.438 141.328C642.865 133.047 649.036 128.906 656.953 128.906C659.766 128.906 662.214 129.219 664.297 129.844L663.828 154.297ZM707.266 183.516L699.844 190.938V215H673.516V94.9219H699.844V158.672L702.5 155.156L722.344 130.469H753.906L724.297 165.234L755.859 215H725.703L707.266 183.516ZM800.156 216.562C787.188 216.562 776.693 212.708 768.672 205C760.651 197.24 756.641 187.161 756.641 174.766V172.578C756.641 163.932 758.229 156.302 761.406 149.688C764.635 143.073 769.323 137.969 775.469 134.375C781.615 130.729 788.906 128.906 797.344 128.906C809.219 128.906 818.594 132.604 825.469 140C832.344 147.344 835.781 157.604 835.781 170.781V181.016H783.438C784.375 185.755 786.432 189.479 789.609 192.188C792.786 194.896 796.901 196.25 801.953 196.25C810.286 196.25 816.797 193.333 821.484 187.5L833.516 201.719C830.234 206.25 825.573 209.87 819.531 212.578C813.542 215.234 807.083 216.562 800.156 216.562ZM797.188 149.219C789.479 149.219 784.896 154.323 783.438 164.531H810V162.5C810.104 158.281 809.036 155.026 806.797 152.734C804.557 150.391 801.354 149.219 797.188 149.219ZM877.109 109.453V130.469H891.016V148.75H877.109V187.422C877.109 190.599 877.682 192.812 878.828 194.062C879.974 195.312 882.24 195.938 885.625 195.938C888.229 195.938 890.417 195.781 892.188 195.469V214.297C887.448 215.807 882.5 216.562 877.344 216.562C868.281 216.562 861.589 214.427 857.266 210.156C852.943 205.885 850.781 199.401 850.781 190.703V148.75H840V130.469H850.781V109.453H877.109ZM935.234 178.125L949.297 130.469H977.5L943.047 229.141L941.562 232.734C936.667 243.672 928.021 249.141 915.625 249.141C912.188 249.141 908.568 248.62 904.766 247.578V228.75H908.203C911.901 228.75 914.714 228.203 916.641 227.109C918.62 226.068 920.078 224.167 921.016 221.406L923.125 215.781L893.75 130.469H921.875L935.234 178.125ZM987.578 189.453C991.745 189.453 995.208 190.703 997.969 193.203C1000.73 195.651 1002.11 198.802 1002.11 202.656C1002.11 206.51 1000.73 209.688 997.969 212.188C995.208 214.635 991.745 215.859 987.578 215.859C983.359 215.859 979.87 214.609 977.109 212.109C974.401 209.609 973.047 206.458 973.047 202.656C973.047 198.854 974.401 195.703 977.109 193.203C979.87 190.703 983.359 189.453 987.578 189.453ZM1063.98 191.25C1063.98 189.01 1062.81 187.214 1060.47 185.859C1058.12 184.505 1053.67 183.099 1047.11 181.641C1040.55 180.182 1035.13 178.281 1030.86 175.938C1026.59 173.542 1023.33 170.651 1021.09 167.266C1018.85 163.88 1017.73 160 1017.73 155.625C1017.73 147.865 1020.94 141.484 1027.34 136.484C1033.75 131.432 1042.14 128.906 1052.5 128.906C1063.65 128.906 1072.6 131.432 1079.38 136.484C1086.15 141.536 1089.53 148.177 1089.53 156.406H1063.12C1063.12 149.635 1059.56 146.25 1052.42 146.25C1049.66 146.25 1047.34 147.031 1045.47 148.594C1043.59 150.104 1042.66 152.005 1042.66 154.297C1042.66 156.641 1043.8 158.542 1046.09 160C1048.39 161.458 1052.03 162.656 1057.03 163.594C1062.08 164.531 1066.51 165.651 1070.31 166.953C1083.02 171.328 1089.38 179.167 1089.38 190.469C1089.38 198.177 1085.94 204.453 1079.06 209.297C1072.24 214.141 1063.39 216.562 1052.5 216.562C1045.26 216.562 1038.8 215.26 1033.12 212.656C1027.45 210.052 1023.02 206.51 1019.84 202.031C1016.67 197.552 1015.08 192.839 1015.08 187.891H1039.69C1039.79 191.797 1041.09 194.661 1043.59 196.484C1046.09 198.255 1049.3 199.141 1053.2 199.141C1056.8 199.141 1059.48 198.411 1061.25 196.953C1063.07 195.495 1063.98 193.594 1063.98 191.25ZM1152.11 205.859C1146.54 212.995 1139.01 216.562 1129.53 216.562C1120.26 216.562 1113.23 213.88 1108.44 208.516C1103.7 203.099 1101.33 195.339 1101.33 185.234V130.469H1127.66V185.391C1127.66 192.63 1131.17 196.25 1138.2 196.25C1144.24 196.25 1148.54 194.089 1151.09 189.766V130.469H1177.58V215H1152.89L1152.11 205.859Z" fill="#5F6FFF"/>
<g clip-path="url(#clip0)">
<rect width="160" height="160" rx="40" transform="matrix(-0.258819 0.965926 -0.960954 -0.276709 324 40)" fill="#5F6FFF"/>
<path d="M241.732 160.614C257.252 176.748 256.987 203.013 241.145 218.855L156.863 303.137C141.242 318.758 116.423 318.27 101.429 302.046L19.9814 213.92C4.98727 197.696 5.49541 171.881 21.1164 156.26L105.407 71.9694C121.246 56.1306 146.481 56.8858 161.369 73.6442L201.233 118.514L241.732 160.614Z" fill="#03D39F"/>
</g>
<defs>
<clipPath id="clip0">
<rect width="320" height="320" fill="white"/>
</clipPath>
</defs>
</svg>
