<svg height="648" viewBox="0 -3 486.058 486" width="648" xmlns="http://www.w3.org/2000/svg"><path d="M200 386.969v-99.2h16v92c0 13.598 10.398 25.598 24 27.2v48.8c0 13.598 10.398 24 24 24h144c13.602 0 24-10.402 24-24v-72c0-13.601-10.398-24-24-24H272v-54.402l110.398 38.403H408c13.602 0 24-10.403 24-24v-160c0-13.602-10.398-24-24-24h-25.602l-36.796 12.8C366.398 90.168 335.199 26.168 276.8 6.168c-58.403-20-122.403 10.402-142.403 68.8-.796 1.602-.796 3.2-1.597 4.802H0v368h139.2zm-56 33.601v-28.8h28.8zm56-148.8c-4.8 0-8-3.2-8-8v-48c0-4.801 3.2-8 8-8h16v64zm32-66.403l136-48v164l-136-48zM408 463.77H264c-4.8 0-8-3.2-8-8v-51.2c4-1.601 7.2-4 9.602-7.203L336 432.57l80-43.203v66.403c0 4.8-3.2 8-8 8zm-.8-88L336 414.969l-64-32v-7.2zm-151.2-16v20c0 6.398-5.602 12-12 12s-12-5.602-12-12v-88.801l24 8zm152-208c4.8 0 8 3.199 8 8v160c0 4.8-3.2 8-8 8h-22.398l-1.602-.801V152.57l1.602-.8zm-168-136c52.8 0 96 43.199 96 96 0 15.199-4 30.398-10.398 44l-103.204 36H200c-3.2 0-6.398.8-9.602 2.398-45.597-27.2-60-86.398-32-132 16.801-28.8 48-46.398 81.602-46.398zm-110.398 80c-4.801 31.199 4 64 24.796 88H16v-88zM16 199.77h154.398c2.403 1.597 4.801 4 8 5.597-1.597 3.203-2.398 6.403-2.398 10.403v48c0 6.398 3.2 13.597 8 17.597v94.403h-56v56H16zm426.5-61.817l32.242-32.242 11.317 11.312-32.247 32.243zM448 271.77h32v16h-32zm0-80h32v16h-32zm0 0"/><path d="M208 47.77v128l85.602-64zm16 32l42.398 32-42.398 32zm-192 136h88v16H32zm0 32h136v16H32zm0 32h136v16H32zm0 32h136v16H32zm0 32h136v16H32zm410.5-2.184l11.313-11.313 32.242 32.243-11.313 11.316zM32 375.77h80v16H32zm376-352h16v24h-16zm16 24h24v16h-24zm-16 16h16v24h-16zm-24-16h24v16h-24zm0 0"/></svg>