<svg height="640" viewBox="0 -19 480 479" width="640" xmlns="http://www.w3.org/2000/svg"><path d="M408 208.5h-96v-80c0-13.602-10.398-24-24-24h-8c-13.602 0-24 10.398-24 24v104h-16c-13.602 0-24 10.398-24 24v58.398l48 88V440.5h144v-38.398l24-56V232.5c0-13.602-10.398-24-24-24zm-128 216v-16h112v16zm136-81.602L394.398 392.5H276.801L232 310.102V256.5c0-4.8 3.2-8 8-8h16v32h16v-152c0-4.8 3.2-8 8-8h8c4.8 0 8 3.2 8 8v136h16v-40h24v40h16v-40h24v40h16v-40h16c4.8 0 8 3.2 8 8zm0 0"/><path d="M376 350.102l-14.398 21.597 12.796 9.602L392 354.898V320.5h-16zm0 0"/><path d="M456 .5H24C10.398.5 0 10.898 0 24.5v304c0 13.602 10.398 24 24 24h184v-16H24c-4.8 0-8-3.2-8-8v-304c0-4.8 3.2-8 8-8h432c4.8 0 8 3.2 8 8v304c0 4.8-3.2 8-8 8h-8v16h8c13.602 0 24-10.398 24-24v-304c0-13.602-10.398-24-24-24zm0 0"/><path d="M40 72.5h176v16H40zm304 0h96v16h-96zm-256 56c-26.398 0-48 21.602-48 48s21.602 48 48 48 48-21.602 48-48-21.602-48-48-48zm0 80c-17.602 0-32-14.398-32-32s14.398-32 32-32 32 14.398 32 32-14.398 32-32 32zm64-40h88v16h-88zm176 0h112v16H328zm-128 72v-16c-26.398 0-48 21.602-48 48s21.602 48 48 48v-16c-17.602 0-32-14.398-32-32s14.398-32 32-32zm-160 24h96v16H40zM324 99.7c10.398-24-.8-52.802-24.8-63.2s-52.802.8-63.2 24.8c-5.602 12-5.602 26.4 0 38.4l14.398-6.4c-5.597-12-2.398-26.402 6.403-35.198 12.8-12 32.8-12 45.597 0 9.602 9.597 12 23.199 6.403 35.199zm0 0"/></svg>