<svg width="100" height="100" fill="none" xmlns="http://www.w3.org/2000/svg"><g clip-path="url(#clip0)" fill="#5F6FFF"><path d="M58.333 64.833l-6.666-5.666L50 40v-8.333H40v8.166L38.833 48.5l-10.5-8.667v23.334l-5-4.167-1.666-32.333v-8.334H8.333V26.5l-1.5 19L0 39.833v53.5h3.333v-46.5l25 20.667v25.833h3.334v-46.5L58.333 69v24.333h3.334v-50h31.666V40H61.667v-5h35v61.667H0V100h100V31.667H58.333v33.166zm-40-43.166V25h-6.666v-3.333h6.666zM11.5 28.333h6.833l1.333 27.834L10 48l1.5-19.667zM46.667 35v3.333h-3.334V35h3.334zm-3.5 6.667h3.666L48 56.167 41.834 51l1.332-9.333zM20 0c-3.667 0-6.667 3-6.667 6.667V15h3.334V6.667c0-1.834 1.5-3.334 3.333-3.334 1.834 0 3.333 1.5 3.333 3.334v1.666C23.333 12 26.333 15 30 15s6.667-3 6.667-6.667V6.667c0-1.834 1.5-3.334 3.333-3.334 1.834 0 3.333 1.5 3.333 3.334v1.666C43.333 12 46.333 15 50 15s6.667-3 6.667-6.667V6.667h-3.334v1.666c0 1.834-1.5 3.334-3.333 3.334a3.343 3.343 0 01-3.333-3.334V6.667C46.667 3 43.667 0 40 0s-6.667 3-6.667 6.667v1.666c0 1.834-1.5 3.334-3.333 3.334a3.343 3.343 0 01-3.333-3.334V6.667C26.667 3 23.667 0 20 0zm33.333 0h3.334v3.333h-3.334V0z"/><path d="M61.667 16.667c-2.834 0-5 2.166-5 5v1.666C56.667 24.333 56 25 55 25s-1.667-.666-1.667-1.667v-1.666c0-2.834-2.166-5-5-5-2.833 0-5 2.166-5 5v6.666h3.334v-6.666c0-1 .666-1.667 1.666-1.667 1 0 1.667.666 1.667 1.667v1.666c0 2.834 2.166 5 5 5s5-2.166 5-5v-1.666c0-1 .666-1.667 1.667-1.667 1 0 1.666.666 1.666 1.667v1.666c0 2.834 2.167 5 5 5 2.834 0 5-2.166 5-5v-1.666C73.333 20.667 74 20 75 20h3.333v-3.333H75c-2.834 0-5 2.166-5 5v1.666c0 1-.666 1.667-1.667 1.667-1 0-1.666-.666-1.666-1.667v-1.666c0-2.834-2.167-5-5-5zm20 0H85V20h-3.333v-3.333zM65 46.667h28.333V50H65v-3.333zm0 6.666h28.333v3.334H65v-3.334zm0 13.334h3.333v6.666H65v-6.666zm8.333 0h3.334v6.666h-3.334v-6.666zm8.334 0H85v6.666h-3.333v-6.666zM65 76.667h3.333v6.666H65v-6.666zm8.333 0h3.334v6.666h-3.334v-6.666zm8.334 0H85v6.666h-3.333v-6.666zM65 86.667h3.333v6.666H65v-6.666zm8.333 0h3.334v6.666h-3.334v-6.666zm8.334 0H85v6.666h-3.333v-6.666zM48.333 70h3.334v5h-3.334v-5zm0 8.333h3.334v8.334h-3.334v-8.334zm-30-8.333h3.334v5h-3.334v-5zm0 8.333h3.334v8.334h-3.334v-8.334zM65 60h28.333v3.333H65V60zm25 6.667h3.333v6.666H90v-6.666zm0 10h3.333v6.666H90v-6.666zm0 10h3.333v6.666H90v-6.666z"/></g><defs><clipPath id="clip0"><path fill="#fff" d="M0 0h100v100H0z"/></clipPath></defs></svg>