<svg height="640" viewBox="0 -8 480 480" width="640" xmlns="http://www.w3.org/2000/svg"><path d="M394.398 7.2C389.602 2.397 384 0 377.602 0H304c-10.398 0-19.2 6.398-22.398 16H132.8L72 76.8V288h16V88h56V32h136v88c0 13.602 10.398 24 24 24h28l-9.602 22.398c-5.597 12 .801 26.403 12.801 31.204 3.2 1.597 6.403 1.597 9.602 1.597h6.398c8.801 0 16.801-4.8 20.801-12l32.8-60H480V16h-76.8zM99.2 72L128 43.2V72zm258.403 108c-1.602 2.398-4 4-7.204 4H344c-4.8 0-8-3.2-8-8 0-.8 0-2.398.8-3.2L356 128h-52c-4.8 0-8-3.2-8-8v-8h40V96h-40V80h40V64h-40V48h40V32h-40v-8c0-4.8 3.2-8 8-8h73.602c2.398 0 4 .8 5.597 2.398L392 27.2v90.403zM464 112h-24V56h-16v56h-16V32h56zm0 0"/><path d="M456 224h-48v-48h-16v48H240c-13.602 0-24 10.398-24 24v96c0 13.602 10.398 24 24 24h152v64H200v-88c0-13.602-10.398-24-24-24h-28l9.602-22.398c5.597-12-.801-26.403-12.801-31.204-2.403-1.597-5.602-2.398-8.801-2.398h-6.398c-8.801 0-16.801 4.8-20.801 12l-33.602 60H0v112h76.8l8.802 8.8c4.796 4.802 10.398 7.2 16.796 7.2H176c10.398 0 19.2-6.398 22.398-16H408v-80h17.602c2.398 0 4 .8 5.597 2.398L480 419.2V248c0-13.602-10.398-24-24-24zM16 352h24v56h16v-56h16v80H16zm160 96h-73.602c-2.398 0-4-.8-5.597-2.398L88 436.8v-90.403l34.398-61.597c1.602-2.403 4-4 7.204-4H136c4.8 0 8 3.199 8 8 0 .8 0 2.398-.8 3.199L124 336h52c4.8 0 8 3.2 8 8v8h-40v16h40v16h-40v16h40v16h-40v16h40v8c0 4.8-3.2 8-8 8zm288-67.2l-21.602-21.6c-4.796-4.802-10.398-7.2-16.796-7.2H240c-4.8 0-8-3.2-8-8v-96c0-4.8 3.2-8 8-8h216c4.8 0 8 3.2 8 8zm0 0"/><path d="M256 256h184v16H256zm0 32h184v16H256zm0 32h160v16H256zM168 72h88v16h-88zm-56 40h144v16H112zm0 40h144v16H112zm0 40h184v16H112zm0 40h80v16h-80zm112 160h144v16H224zm0 0"/></svg>