<svg height="640" viewBox="0 -16 480 480" width="640" xmlns="http://www.w3.org/2000/svg"><path d="M240 16c-7.2-10.398-19.2-16-32-16H0v448h480V0H272c-12.8 0-24.8 6.398-32 16zm224 416H16v-16h192c12.8 0 24.8-6.398 32-16 7.2 10.398 19.2 16 32 16h192zm0-32H272c-13.602 0-24-10.398-24-24v-24h24v-68l12-8c22.398-15.2 36-40 36-66.398V208c0-44-36-80-80-80s-80 36-80 80v1.602c0 26.398 13.602 52 36 66.398l12 8v68h24v24c0 13.602-10.398 24-24 24H16V16h192c13.602 0 24 10.398 24 24v24h16V40c0-13.602 10.398-24 24-24h192zm-208-96h-32v-16h32zm-24-88h-8c-4.8 0-8-3.2-8-8s3.2-8 8-8 8 3.2 8 8zm29.602 56H248v-40h8c13.602 0 24-10.398 24-24s-10.398-24-24-24c-5.602 0-12 2.398-16 6.398-9.602-8.796-24.8-8-33.602 1.602-8.796 9.602-8 24.8 1.602 33.602 4.8 4 10.398 6.398 16 6.398h8v40h-13.602l-13.597-9.602c-17.602-12-28.801-32-28.801-53.597V208c0-35.2 28.8-64 64-64s64 28.8 64 64v1.602c0 21.597-10.398 41.597-28.8 53.597zM248 216v-8c0-4.8 3.2-8 8-8s8 3.2 8 8-3.2 8-8 8zm-24 104h32v16h-32zm0 0"/><path d="M232 80h16v32h-16zm-70.637 28.465l13.317-8.88 15.972 23.966-13.312 8.875zM123.59 166.66l8.875-13.312 23.965 15.976-8.875 13.313zm37.781 140.875l15.977-23.965 13.312 8.875-15.976 23.965zm-37.785-58.191l23.965-15.973 8.875 13.313-23.961 15.976zm165.777-125.817l15.973-23.965 13.316 8.876-15.976 23.964zm34.235 45.813l23.964-15.973 8.875 13.313-23.964 15.976zm-34.227 123.133l13.313-8.875 15.976 23.964-13.312 8.875zm34.223-45.821l8.875-13.316 23.965 15.976-8.875 13.313zM352 104h96v16h-96zm-80-64h176v16H272zm104 128h72v16h-72zm0 64h72v16h-72zm-24 64h96v16h-96zm-40 64h136v16H312zM32 104h96v16H32zm0-64h176v16H32zm0 128h72v16H32zm0 64h72v16H32zm0 64h96v16H32zm0 64h136v16H32zm0 0"/></svg>