<svg height="640" viewBox="-21 0 479 480" width="640" xmlns="http://www.w3.org/2000/svg"><path d="M198.273 352c-17.597 0-32 14.398-32 32s14.403 32 32 32c17.602 0 32-14.398 32-32s-14.398-32-32-32zm0 48c-8.8 0-16-7.2-16-16s7.2-16 16-16c8.801 0 16 7.2 16 16s-7.199 16-16 16zm0 0"/><path d="M414.273 32h-120v16h120c4.801 0 8 3.2 8 8v112c0 4.8-3.199 8-8 8h-43.199l-20.8 20.8-20.801-20.8h-31.2c-2.398-11.2-4-23.2-4-34.398V96c0-52.8-43.199-96-96-96-52.8 0-96 43.2-96 96v45.602c0 21.597-4.8 43.199-13.597 63.199l-10.403 22.398-44.8 25.602c-6.399 4-11.2 10.398-12 18.398L.676 453.602c-1.602 12.796 8 24.796 20.797 26.398h350.402c13.598 0 24-10.398 24-24v-2.398l-20.8-182.403c-.802-7.199-5.602-14.398-12-18.398l-44.802-25.602L307.875 204c-1.602-4-3.2-8-4.8-12h20l27.198 27.2 27.2-27.2h36.8c13.602 0 24-10.398 24-24V56c0-13.602-10.398-24-24-24zM103.074 211.2c9.602-21.598 15.2-45.598 15.2-69.598V96c0-44 36-80 80-80s80 36 80 80v45.602c0 24 4.8 48 15.199 69.597l15.203 33.602c1.597 4 0 8.8-4 10.398-.801.801-2.403.801-3.203.801h-42.399c-4 0-7.199-2.398-8-6.398l-12.8-66.403c10.402-10.398 16-24.8 16-39.199V99.2l-16.801-8a89.865 89.865 0 00-78.399 0l-16.8 8V144c0 14.398 5.601 28.8 16 39.2l-13.598 66.402c-.801 4-4 6.398-8 6.398H94.273c-4.8 0-8-3.2-8-8 0-.8 0-2.398.801-3.2zm84.801 76.8l-21.602-64.8 5.602-29.598c16 8.796 35.2 8.796 51.2 0l5.6 29.597-20 64.801zm10.398-104c-22.398 0-40-17.602-40-40v-35.2l8-4c20-10.402 44-10.402 64 0l8 4V144c0 22.398-17.597 40-40 40zM23.875 464c-4.8 0-8-3.2-8-8v-.8l20.8-182.4c0-2.402 1.598-4.8 4-6.402l29.598-16.796c.801 12.796 11.2 22.398 24 22.398h42.403c10.398 0 20-7.2 23.199-17.602l11.2 33.602H78.272c-13.597 0-24 10.398-24 24v152zm302.398 0h-256V312c0-4.8 3.2-8 8-8h240c4.801 0 8 3.2 8 8zm32.801-191.2l20.801 182.4c.8 4-2.402 8-7.2 8.8h-30.402V312c0-13.602-10.398-24-24-24h-92.8l11.203-33.602c3.199 10.403 12 17.602 23.199 17.602h42.398c12.801 0 23.2-9.602 24-22.398l29.602 16.796c1.598 1.602 3.2 4 3.2 6.403zm0 0"/><path d="M310.273 72h96v16h-96zm0 32h96v16h-96zm0 32h96v16h-96zm0 0"/></svg>