<svg width="100" height="100" fill="none" xmlns="http://www.w3.org/2000/svg"><g clip-path="url(#clip0)" fill="#5F6FFF"><path d="M48.297 41.86h6.645v3.323h-6.645v-3.322zm19.934 0h6.645v3.323H68.23v-3.322zm0 13.29h6.645v3.322H68.23V55.15zm-19.934 0h6.645v3.322h-6.645V55.15zm0 13.289h6.645v3.322h-6.645V68.44zm19.934 0h6.645v3.322H68.23V68.44zM66.57 90.034h3.322v3.322H66.57v-3.322z"/><path d="M94.81 25.914L49.958 0 5.109 25.914v40.864H8.43V27.907l41.53-23.92 41.528 23.92v68.771H74.876a6.69 6.69 0 001.494-3.322h6.811c2.824 0 4.984-2.16 4.984-4.984v-8.305c0-2.824-2.16-4.984-4.984-4.984V40.2c0-2.658-2.16-4.984-4.817-4.984H44.81c-2.658 0-4.817 2.326-4.817 4.984v34.883H36.67V46.844h-3.323v3.322h-7.974a4.788 4.788 0 00-4.318 2.658L9.095 75.249c-.498.665-.665 1.496-.665 2.326v10.797c0 2.824 2.16 4.984 4.984 4.984h3.488c.332 1.162.83 2.325 1.495 3.322H.125V100h99.668v-3.322h-4.984V25.914zM33.18 93.356h26.91c.332 1.162.831 2.325 1.495 3.322h-29.9c.664-.997 1.163-2.16 1.495-3.322zm30.067-1.661c0-2.825 2.159-4.984 4.983-4.984s4.984 2.16 4.984 4.984c0 2.823-2.16 4.983-4.984 4.983s-4.983-2.16-4.983-4.983zm0-16.612v-9.966h16.611v9.966h-16.61zm0-23.255h16.611v9.966h-16.61v-9.966zm-3.323 9.966h-16.61v-9.966h16.61v9.966zM79.86 40.2v8.305H63.248v-9.967h15.116c.83 0 1.495.831 1.495 1.662zm-35.05-1.662h15.116v9.967h-16.61V40.2c0-.83.663-1.662 1.494-1.662zm-1.495 26.579h16.611v9.966h-16.61v-9.966zM23.88 54.319c.332-.499.83-.83 1.494-.83h7.974v21.594H12.915L23.879 54.32zM11.753 88.372v-9.966H83.18c.997 0 1.661.664 1.661 1.66v8.306c0 .996-.664 1.662-1.66 1.662H76.37c-.996-4.486-5.316-7.476-9.8-6.48-3.322.666-5.814 3.157-6.478 6.48h-26.91c-.998-4.486-5.317-7.476-9.801-6.48-3.323.666-5.814 3.157-6.479 6.48h-3.488c-.997 0-1.661-.666-1.661-1.662zm8.305 3.323c0-2.825 2.16-4.984 4.984-4.984 2.823 0 4.983 2.16 4.983 4.984 0 2.823-2.16 4.983-4.983 4.983-2.825 0-4.984-2.16-4.984-4.983z"/><path d="M23.38 90.034h3.323v3.322H23.38v-3.322zm36.545-74.087l-9.966-5.98-9.967 5.98v14.286h19.933V15.947zm-16.61 1.993l4.983-2.99v11.96h-4.984v-8.97zm13.288 8.97H51.62V14.95l4.983 2.99v8.97z"/></g><defs><clipPath id="clip0"><path fill="#fff" d="M0 0h100v100H0z"/></clipPath></defs></svg>