<svg height="640" viewBox="0 0 480 480" width="640" xmlns="http://www.w3.org/2000/svg"><path d="M448 373.602V104c0-13.602-10.398-24-24-24H232v16h192c4.8 0 8 3.2 8 8v264H48V232H32v141.602L4 415.199c-2.398 4-4 8.801-4 13.602V456c0 13.602 10.398 24 24 24h432c13.602 0 24-10.398 24-24v-27.2c0-4.8-1.602-9.6-4-13.6zM436 384l21.602 32H283.199l-8 16h-70.398l-8-16H23.199l21.602-32zm20 80H24c-4.8 0-8-3.2-8-8v-24h171.2l8 16h89.6l8-16H464v24c0 4.8-3.2 8-8 8zm0 0"/><path d="M108 232h132v-16c-13.602 0-24-10.398-24-24v-84C216 48 168 0 108 0S0 48 0 108v16c0 60 48 108 108 108zM16 108c0-51.2 40.8-92 92-92s92 40.8 92 92v84c0 8.8 3.2 16.8 8 24H108c-50.398 0-92-41.602-92-92zm232 172v72h160v-72c0-12.8-8-24.8-20-29.602 7.2-15.199 8-32 4-48l-5.602-21.597c-8.796-32-41.597-51.2-74.398-42.403C291.2 144 275.2 160 269.602 180.801L264 202.398c-4 16-3.2 32.801 4 48C256 255.2 248 267.2 248 280zm31.2-73.602l5.6-21.597c6.4-24 31.2-37.602 54.4-31.2 15.198 4 27.198 16 31.198 31.2L376 206.398c4 14.403 1.602 28.801-5.602 41.602H368c-8 0-15.2-6.398-16-14.398l4-7.204c2.398-5.597 4-12 4-17.597V200c0-17.602-14.398-32-32-32s-32 14.398-32 32v8.8c0 6.4 1.602 12 4 17.598l4 7.204c-.8 8-8 14.398-16 14.398h-3.2c-7.198-12.8-9.6-28-5.6-41.602zM328 263.2l-17.602-8.8C316 248.8 320 240 320 232v-1.602l-5.602-11.199C312.801 216 312 212 312 208.801V200c0-8.8 7.2-16 16-16s16 7.2 16 16v8.8c0 4-.8 7.2-2.398 10.4L336 230.397V232c0 8.8 3.2 16.8 9.602 22.398zM264 280c0-8.8 7.2-16 16-16h8c1.602 0 3.2 0 4.8-.8l27.2 13.6V320h16v-43.2l27.2-13.6c1.6 0 3.198.8 4.8.8h8c8.8 0 16 7.2 16 16v56H264zm0 0"/><path d="M352 288h24v16h-24zM48 56h120v16H48zm0 32h120v16H48zm0 32h120v16H48zm0 32h80v16H48zm24 128h136v16H72zm0 40h136v16H72zm0 0"/></svg>