<svg height="640" viewBox="0 -60 480 480" width="640" xmlns="http://www.w3.org/2000/svg"><path d="M448 312V24c0-13.602-10.398-24-24-24H56C42.398 0 32 10.398 32 24v288H0v24c0 13.602 10.398 24 24 24h432c13.602 0 24-10.398 24-24v-24zm-216-96H48V80h184zm16-136h184v136H248zM56 16h368c4.8 0 8 3.2 8 8v40H48V24c0-4.8 3.2-8 8-8zm-8 216h384v80H48zm416 104c0 4.8-3.2 8-8 8H24c-4.8 0-8-3.2-8-8v-8h448zm0 0"/><path d="M64 32h16v16H64zm32 0h16v16H96zm32 0h16v16h-16zm32 0h256v16H160zM64 248h96v16H64zm192 0h96v16h-96zM69.602 181.602L96 155.199l24 24 40-40 24 24 37.602-37.597-11.204-11.204L184 140.801l-24-24-40 40-24-24-37.602 37.597zM352 120v16c13.602 0 24 10.398 24 24s-10.398 24-24 24-24-10.398-24-24h-16c0 22.398 17.602 40 40 40s40-17.602 40-40-17.602-40-40-40zM64 280h96v16H64zm192 0h96v16h-96zm-64 0h32v16h-32zm192 0h32v16h-32zm0 0"/><path d="M336 96h-8c-22.398 0-40 17.602-40 40v8h48zm-16 32h-14.398c2.398-7.2 8-12 14.398-14.398zM192 248h32v16h-32zm192 0h32v16h-32zm0 0"/></svg>