<svg height="640" viewBox="0 0 480 480" width="640" xmlns="http://www.w3.org/2000/svg"><path d="M208 240h-16c0 48.8-39.2 88-88 88s-88-39.2-88-88 39.2-88 88-88v-16C46.398 136 0 182.398 0 240s46.398 104 104 104 104-46.398 104-104zm168-104c-57.602 0-104 46.398-104 104h16c0-48.8 39.2-88 88-88s88 39.2 88 88-39.2 88-88 88v16c57.602 0 104-46.398 104-104s-46.398-104-104-104zm0 0"/><path d="M408 272v-8h-16v8c0 4.8-3.2 8-8 8h-16c-4.8 0-8-3.2-8-8v-8h16v-16h-16v-16h16v-16h-16v-8c0-4.8 3.2-8 8-8h16c4.8 0 8 3.2 8 8v8h16v-8c0-13.602-10.398-24-24-24h-16c-13.602 0-24 10.398-24 24v8h-16v16h16v16h-16v16h16v8c0 13.602 10.398 24 24 24h16c13.602 0 24-10.398 24-24zm-168 0v16c48.8 0 88 39.2 88 88s-39.2 88-88 88-88-39.2-88-88h-16c0 57.602 46.398 104 104 104s104-46.398 104-104-46.398-104-104-104zm0-64v-16c-48.8 0-88-39.2-88-88s39.2-88 88-88 88 39.2 88 88h16C344 46.398 297.602 0 240 0S136 46.398 136 104s46.398 104 104 104zm0 0"/><path d="M272 320h-16v13.602l-16 20.796-16-20.796V320h-16v18.398L230.398 368H216v16h16v16h-16v16h16v16h16v-16h16v-16h-16v-16h16v-16h-14.398L272 338.398zm0-240v-8c0-13.602-10.398-24-24-24V32h-16v16c-13.602 0-24 10.398-24 24v16c0 13.602 10.398 24 24 24h16c4.8 0 8 3.2 8 8v16c0 4.8-3.2 8-8 8h-16c-4.8 0-8-3.2-8-8v-8h-16v8c0 13.602 10.398 24 24 24v16h16v-16c13.602 0 24-10.398 24-24v-16c0-13.602-10.398-24-24-24h-16c-4.8 0-8-3.2-8-8V72c0-4.8 3.2-8 8-8h16c4.8 0 8 3.2 8 8v8zM80 208v24h-8v16h8v32h-8v16h64v-16H96v-32h24v-16H96v-24c0-4.8 3.2-8 8-8h8c4.8 0 8 3.2 8 8v8h16v-8c0-13.602-10.398-24-24-24h-8c-13.602 0-24 10.398-24 24zm0 0"/></svg>