<svg height="640" viewBox="0 0 480 480" width="640" xmlns="http://www.w3.org/2000/svg"><path d="M360 240c-66.398 0-120 53.602-120 120s53.602 120 120 120 120-53.602 120-120-53.602-120-120-120zm0 224c-29.602 0-57.602-12.8-77.602-34.398L308 384.8c.8-1.602 2.398-2.403 4-3.2l26.398-10.402c8-3.199 12-12.8 8.801-20.8 0-.797 0-.797-.8-1.598L336 326.398V320c0-13.602 10.398-24 24-24s24 10.398 24 24v6.398l-11.2 22.403c-4 8-.8 17.597 7.2 21.597.8 0 .8 0 1.602.801L408 381.602c1.602.796 3.2 1.597 4 3.199l25.602 44.8C417.602 451.2 389.602 464 360 464zm88-48.8l-22.398-38.4c-2.403-4.8-7.204-8-12-10.402L387.199 356 400 330.398V320c0-22.398-17.602-40-40-40s-40 17.602-40 40v9.602l12.8 25.597-26.402 10.403c-4.796 2.398-9.597 5.597-12 10.398L272 415.2c-30.398-48-16-112.802 32-143.2s112.8-16.8 143.2 32c22.402 34.398 22.402 77.602.8 111.2zm0 0"/><path d="M104 456v-24h128v-16H104V48h272v176h16V24c0-13.602-10.398-24-24-24H112C98.398 0 88 10.398 88 24v432c0 13.602 10.398 24 24 24h160v-16H112c-4.8 0-8-3.2-8-8zm8-440h256c4.8 0 8 3.2 8 8v8H104v-8c0-4.8 3.2-8 8-8zm0 0"/><path d="M184 64h112v16H184zm32 48h144v16H216zm0 32h80v16h-80zm0 64h144v16H216zm0 32h56v16h-56zM56 104H40c-8.8 0-16 7.2-16 16v267.2l24 24 24-24V120c0-8.8-7.2-16-16-16zm0 16v16H40v-16zm0 32v200H40V152zm-8 236.8l-8-8V368h16v12.8zM0 424h64v16H0zm200-256h-16v8h-48v-48h16v-16h-16c-8.8 0-16 7.2-16 16v48c0 8.8 7.2 16 16 16h48c8.8 0 16-7.2 16-16zm0 0"/><path d="M146.543 154.14l40.164-40.16 11.313 11.313-40.165 40.164zM200 264h-16v8h-48v-48h16v-16h-16c-8.8 0-16 7.2-16 16v48c0 8.8 7.2 16 16 16h48c8.8 0 16-7.2 16-16zm0 0"/><path d="M146.543 250.14l40.16-40.16 11.317 11.313-40.165 40.164zM120 320v48c0 8.8 7.2 16 16 16h48c8.8 0 16-7.2 16-16v-8h-16v8h-48v-48h16v-16h-16c-8.8 0-16 7.2-16 16zm0 0"/><path d="M146.543 346.14l40.16-40.163 11.317 11.316-40.165 40.16zm0 0"/></svg>