<svg width="100" height="100" fill="none" xmlns="http://www.w3.org/2000/svg"><path d="M87.5 96.875V85l.156-.156 1.875-1.875c1.875-1.875 1.875-4.844 0-6.563L87.5 74.375v-4.063c0-7.187-4.844-13.437-11.875-15.156L65 52.5c2.344-2.031 3.594-5 3.594-8.125v-1.406l5.469-3.282c1.406-.78 2.343-2.343 2.343-4.062v-2.188c0-2.656-2.031-4.687-4.687-4.687-.313 0-.625 0-.938.156l-1.719.313L71.25 20c1.25-5.625-2.031-11.406-7.656-12.969L50 3.125 36.25 7.031C30.625 8.594 27.344 14.375 28.594 20l2.187 9.219-1.718-.313c-2.5-.468-5 1.094-5.47 3.75 0 .313-.155.625-.155.938v2.187c0 1.719.937 3.125 2.343 4.063l5.469 3.281v1.406c0 3.125 1.406 6.094 3.594 8.125l-10.625 2.657c-6.875 1.562-11.719 7.812-11.719 15v26.562h75zm-21.875-4.844c0-.469.156-.937.469-1.25l10.469-10.469 2.5 2.5-10.47 10.47c-.624.624-1.718.624-2.5 0-.312-.313-.468-.782-.468-1.25zm18.75 1.719H72.5L81.25 85c.781.781 2.031 1.25 3.125 1.25v7.5zm2.969-12.969l-1.875 1.875c-.625.625-1.563.625-2.188 0l-8.125-8.125c-.625-.625-.625-1.562 0-2.187l1.875-1.875c.625-.625 1.563-.625 2.188 0l8.125 8.125c.625.625.625 1.562 0 2.187zM65.625 41.562L62.5 45.157c-2.031 2.344-5.469 2.657-7.813.625l-.937-.937c-1.563-2.032-4.375-2.657-6.563-1.094a3.65 3.65 0 00-1.093 1.094c-1.719 2.5-5.313 3.125-7.657 1.25l-.937-.938-3.125-3.593V30c0-4.375 3.438-7.813 7.813-7.813.468 0 .937 0 1.406.157l4.531.781a8.255 8.255 0 003.906 0l4.532-.781c4.218-.782 8.28 2.031 9.062 6.25.156.468.156.937.156 1.406v11.563h-.156zm-30.469 5.626c1.563 1.874 4.063 2.968 6.563 2.968h.468c2.657-.156 5.157-1.406 6.72-3.593.468-.626 1.562-.782 2.187-.313l.312.313c2.813 3.906 8.125 4.843 12.032 2.03.624-.468 1.093-.937 1.562-1.406l.313-.312c-.626 1.875-1.876 3.438-3.594 4.375l-7.032 3.906c-2.812 1.563-6.25 1.563-8.906 0L38.75 51.25c-1.719-.938-2.969-2.5-3.594-4.375v.313zm8.907 10.624a12.639 12.639 0 0012.03 0l4.376-2.343L60 57.656c-1.25 5.469-6.563 8.907-12.031 7.657-3.907-.782-6.875-3.907-7.657-7.657l-.468-2.187 4.218 2.343zm27.5-25.78c.78-.157 1.718.312 1.874 1.25v2.498c0 .625-.312 1.094-.78 1.407l-3.907 2.187V32.5l2.813-.469zM37.187 10L50 6.25 62.813 10c4.062 1.094 6.406 5.156 5.468 9.219l-1.094 5.156c-2.343-3.906-6.874-5.938-11.25-5.156l-4.53.781a8.499 8.499 0 01-2.813 0l-4.532-.781c-4.53-.782-8.906 1.25-11.25 5.156l-1.093-5c-.938-4.219 1.406-8.281 5.468-9.375zm-9.843 27.031c-.469-.312-.782-.781-.782-1.406v-2.188c0-.937.625-1.562 1.563-1.562h.313l2.812.625v6.875l-3.906-2.344zM15.625 70.313a12.533 12.533 0 019.531-12.188l11.25-2.813.625 2.97c1.563 7.187 8.594 11.718 15.782 10 5-1.094 8.906-5 10-10l.624-2.97 11.25 2.813a12.533 12.533 0 019.532 12.188v.937l-2.969-2.969c-1.875-1.875-4.844-1.875-6.563 0l-1.874 1.875c-1.876 1.875-1.876 4.844 0 6.563l1.406 1.406L63.75 88.594C62.344 90 61.875 92.03 62.656 93.75H32.813V73.437h-3.126V93.75H15.626V70.312z" fill="#5F6FFF"/><path d="M57.344 87.031L68.906 75.47c1.875-1.875 1.875-5 0-6.875a4.847 4.847 0 00-3.437-1.406c-1.25 0-2.5.468-3.438 1.406L50.47 80.156l-1.094 1.094-7.188 7.188L53.75 90.78l3.594-3.75zm6.875-16.25c.625-.625 1.719-.625 2.5 0 .312.313.469.781.469 1.25s-.157.938-.47 1.25L56.25 83.75l-2.5-2.5 10.469-10.469zM48.438 86.562l3.124-3.124 2.5 2.5-1.406 1.406-4.218-.781z" fill="#5F6FFF"/></svg>