<svg height="640" viewBox="-16 0 480 480" width="640" xmlns="http://www.w3.org/2000/svg"><path d="M160 200V24c0-13.602-10.398-24-24-24H56C42.398 0 32 10.398 32 24v176c0 13.602 10.398 24 24 24h80c13.602 0 24-10.398 24-24zm-16-24H48V48h96zM56 16h80c4.8 0 8 3.2 8 8v8H48v-8c0-4.8 3.2-8 8-8zm-8 184v-8h96v8c0 4.8-3.2 8-8 8H56c-4.8 0-8-3.2-8-8zm0 0"/><path d="M132.8 112L72 63.2v97.6zM88 96.8l19.2 15.2L88 127.2zM208 136c0-52.8 43.2-96 96-96 22.398 0 44.8 8 62.398 22.398L348.801 80C317.6 55.2 272.8 60 248 91.2 237.602 104 232 120 232 136h16c0-31.2 24.8-56 56-56 12 0 24 4 33.602 11.2L320 108.8c-4.8-3.198-10.398-4.8-16-4.8-17.602 0-32 14.398-32 32h16c0-8.8 7.2-16 16-16 1.602 0 2.398 0 4 .8l-9.602 9.598 11.204 11.204 9.597-9.602c0 1.602.801 2.398.801 4 0 8.8-7.2 16-16 16v16c17.602 0 32-14.398 32-32 0-5.602-1.602-11.2-4.8-16l17.6-17.602c18.4 24.801 13.598 60-11.198 78.403C328 188 316 192 304 192v16c40 0 72-32 72-72 0-16-5.602-32-16-44.8l16.8-16.802c34.4 40 29.598 100.801-11.198 135.204C348.8 224 326.398 232 304 232v16c61.602 0 112-49.602 112-112 0-27.2-9.602-52.8-27.2-73.602L403.2 48H440V32h-32V0h-16v36.8l-14.398 14.4C330.398 11.2 260 16 219.199 62.397 201.602 83.2 192 108.801 192 136zm168 160h-70.398l-152-56H136c-13.602 0-24 10.398-24 24v160c0 13.602 10.398 24 24 24h17.602l152-64H328v72c0 13.602 10.398 24 24 24s24-10.398 24-24v-72c13.602 0 24-10.398 24-24v-40c0-13.602-10.398-24-24-24zm-216-36.8l136 50.402v60.796L160 428zM128 424V264c0-4.8 3.2-8 8-8h8v176h-8c-4.8 0-8-3.2-8-8zm232 32c0 4.8-3.2 8-8 8s-8-3.2-8-8v-72h16zm24-96c0 4.8-3.2 8-8 8h-64v-56h64c4.8 0 8 3.2 8 8zM64 328h32v16H64zm2.46-58.223l11.313-11.316 23.762 23.762-11.316 11.312zm0 132.446l23.76-23.763 11.312 11.316-23.758 23.758zm0 0"/><path d="M192 152.8v8c0 48 39.2 87.2 87.2 87.2h8.8v-96h-88zm80 15.2v64c-33.602-3.2-60-30.398-63.2-64zM176 24h48v16h-48zm256 144v152c0 4.8-3.2 8-8 8h-8v16h8c13.602 0 24-10.398 24-24V168zM16 320V168H0v152c0 13.602 10.398 24 24 24h24v-16H24c-4.8 0-8-3.2-8-8zm0 0"/></svg>