<svg height="640" viewBox="0 -1 480.019 480" width="640" xmlns="http://www.w3.org/2000/svg"><path d="M256 .008c-124 0-224 100-224 224v8.8L0 251.212V404.81l120 68.8 120-68.8v-153.6l-120-68.8-72 41.597c0-27.2 5.602-54.399 16-80h57.602c2.398 0 4 .8 5.597 2.402l22.403 22.399c4.796 4.8 10.398 7.199 16.796 7.199H200c13.602 0 24-10.399 24-24v-9.598c0-6.402-2.398-12.8-7.2-16.8l-14.402-14.4c-1.597-1.6-2.398-3.202-2.398-5.6v-26.4c0-6.401-2.398-12.8-7.2-16.8L167.2 36.81c28-14.399 58.402-20.801 88.8-20.801V81.61c0 6.399 2.398 12.801 7.2 16.801l22.402 22.399c1.597 1.601 2.398 3.199 2.398 5.601v26.399c0 2.402-.8 4-2.398 5.601l-8 8c-9.602 9.598-9.602 24.8 0 33.598l1.597 1.601c9.602 9.602 24.801 9.602 33.602 0l24-24c1.597-1.601 3.199-2.398 5.597-2.398H360c13.602 0 24-10.402 24-24V101.61c0-2.398.8-4 2.398-5.601l18.403-18.399c26.398 27.2 44.8 60.801 53.597 97.602h-36c-6.398 0-12.796 2.398-16.796 7.2l-22.403 22.398c-4.799 5.6-7.199 11.198-7.199 17.6v9.598c0 13.601 10.398 24 24 24h17.602c6.398 0 12.796-2.399 16.796-7.2l16.801-16.8H464c-.8 16-3.2 32-7.2 48h-90.402c-2.398 0-4-.797-5.597-2.399l-38.403-38.398c-4.796-4.8-10.398-7.203-16.796-7.203H296c-13.602 0-24 10.402-24 24v17.601c0 6.399 2.398 12.801 7.2 16.801l14.402 14.399c1.597 1.601 2.398 3.199 2.398 5.601v18.399c0 2.402-.8 4-2.398 5.601-9.602 9.598-9.602 24.8 0 33.598 4.796 4.8 10.398 7.203 16.796 7.203h18.403c2.398 0 4 .797 5.597 2.398L360 403.211c-30.398 17.598-65.602 28-100.8 28l18.402-18.402-11.204-11.2-37.597 38.399 37.597 37.601 11.204-11.199-18.403-18.402c124-1.598 222.403-103.2 220.801-227.2C478.398 98.41 378.398.009 256 .009zM16 269.609l88 50.399v125.601l-88-50.398zm152 32l16-8.8v46.402l-16 8zm-48 8.801l-40-22.402 96-54.399 40 22.399zm0 144v-124.8l32-18.4v62.4l48-24v-65.602l24-13.598v125.598zm40-230.402L64 278.41l-40-22.402 96-54.399zm21.602-151.2c1.597 1.602 2.398 3.2 2.398 5.602v26.399c0 6.402 2.398 12.8 7.2 16.8l14.402 14.399c1.597 1.601 2.398 3.203 2.398 5.601v10.399c0 4.8-3.2 8-8 8h-33.602c-2.398 0-4-.797-5.597-2.399l-22.403-22.398c-4.796-4.8-10.398-7.203-16.796-7.203H72c18.398-35.2 46.398-64.797 80.8-84zM375.199 85.61C370.4 90.41 368 96.008 368 102.41v49.598c0 4.8-3.2 8-8 8h-17.602c-6.398 0-12.796 2.402-16.796 7.203l-24 24c-3.204 3.2-8 3.2-11.204 0l-1.597-1.602c-3.2-3.199-3.2-8 0-11.199l8-8c4.8-4.8 7.199-10.402 7.199-16.8v-26.4c0-6.401-2.398-12.8-7.2-16.8l-22.402-22.402c-1.597-1.598-2.398-3.2-2.398-5.598v-65.6c44.8 3.199 87.2 21.601 120.8 51.199zm69.602 130.399l-21.602 21.601c-1.597 1.602-3.199 2.399-5.597 2.399H400c-4.8 0-8-3.2-8-8v-9.598c0-2.402.8-4 2.398-5.601l22.403-22.399c1.597-1.601 3.199-2.402 5.597-2.402h39.204c1.597 8 1.597 16 2.398 24zM374.398 395.21l-28-28c-4.796-4.8-10.398-7.203-16.796-7.203h-18.403c-4.8 0-8-3.2-8-8 0-2.399.801-4 2.403-5.598 4.796-4.8 7.199-10.402 7.199-16.8v-18.4c0-6.401-2.403-12.8-7.2-16.8L291.2 280.008c-1.597-1.598-2.398-3.2-2.398-5.598v-18.402c0-4.797 3.199-8 8-8h9.597c2.403 0 4 .8 5.602 2.402l38.398 38.399c4.801 4.8 10.403 7.199 16.801 7.199H452c-16 40-42.398 74.402-77.602 99.203zm0 0"/></svg>