<svg height="640" viewBox="0 -8 480 480" width="640" xmlns="http://www.w3.org/2000/svg"><path d="M144 160h256c44 0 80-36 80-80S444 0 400 0H144c-44 0-80 36-80 80s36 80 80 80zm0-144h256c35.2 0 64 28.8 64 64s-28.8 64-64 64H144c-35.2 0-64-28.8-64-64s28.8-64 64-64zm0 272H24c-4.8 0-8-3.2-8-8V128c0-4.8 3.2-8 8-8h24v-16H24c-13.602 0-24 10.398-24 24v152c0 13.602 10.398 24 24 24h120zm32-112h16v48h-16zm88 120h-40v-32c0-13.602-10.398-24-24-24s-24 10.398-24 24v48h-16c-8.8 0-16 7.2-16 16v41.602l24 56V464h104v-39.2l8-31.198V312c0-8.8-7.2-16-16-16zm-80 152v-16h72v16zm80-56.8l-6.398 24.8H180.8L160 366.398V328h16v32h16v-96c0-4.8 3.2-8 8-8s8 3.2 8 8v80h16v-32h40zm0 0"/><path d="M88 176v36.8l-10.398-10.402-11.204 11.204L96 243.199l29.602-29.597-11.204-11.204L104 212.801V176zm0 0"/><path d="M48 240v16c0 8.8 7.2 16 16 16h64c8.8 0 16-7.2 16-16v-16h-16v16H64v-16zm337.602 28l20.796-76H432v-16h-25.602c-7.199 0-13.597 4.8-15.199 12l-6.398 20h-62.403c-8.796 0-16 7.2-16 16 0 1.602 0 3.2.801 4l11.2 40c1.601 7.2 8 11.2 15.203 12h36c7.199 0 13.597-4.8 16-12zm-16-4h-36l-11.204-40h58.403zM328 296h16v16h-16zm32 0h16v16h-16zm0 0"/><path d="M456 320c0 4.8-3.2 8-8 8H296v16h152c13.602 0 24-10.398 24-24V160h-16zM248 176h16v104h-16zm-32-48h112c8.8 0 16-7.2 16-16V48c0-8.8-7.2-16-16-16H216c-8.8 0-16 7.2-16 16v64c0 8.8 7.2 16 16 16zm0-16V54.398l56 35.204 56-35.204V112zm20-64h72l-36 22.398zm0 0"/></svg>