<svg height="491pt" viewBox="0 -5 491.2 491" width="491pt" xmlns="http://www.w3.org/2000/svg"><path d="M325.602 80.102c13.597 0 24-10.403 24-24 0-13.602-10.403-24-24-24-13.602 0-24 10.398-24 24 0 13.597 10.398 24 24 24zm0-32c4.796 0 8 3.199 8 8 0 4.796-3.204 8-8 8-4.801 0-8-3.204-8-8 0-4.801 3.199-8 8-8zm0 0"/><path d="M404.8 259.3l75.2 72.802 11.2-11.204-86.4-84-48 47.204-103.198-103.204v-68.796h16v32h176v-112h-32v-32h-176v180.796l-104 104-48-48L0 322.5l11.2 11.2 74.402-74.4 36.796 36.802L0 418.5l11.2 11.2 234.402-234.4L480 429.7l11.2-11.2L368 295.3zm24.802-211.198v80h-144v-16h128v-64zm-32-32v80h-144v-80zm0 0"/><path d="M165.602 80.102h16v16h-16zm16 16h16v16h-16zm-16 16h16v16h-16zm-16-16h16v16h-16zm-40-96h16v16h-16zm16 16h16v16h-16zm-16 16h16v16h-16zm-16-16h16v16h-16zm272 32h16v16h-16zm-96 0h16v16h-16zm96 120h16v16h-16zm16 16h16v16h-16zm-16 16h16v16h-16zm-16-16h16v16h-16zm-288-64h16v16h-16zm16 16h16v16h-16zm-16 16h16v16h-16zm-16-16h16v16h-16zm32 288c0-22.403 17.597-40 40-40h184c13.597 0 24-10.403 24-24 0-13.602-10.403-24-24-24h-56c-22.403 0-40-17.602-40-40 0-22.403 17.597-40 40-40h24v-16h-24c-31.204 0-56 24.796-56 56 0 31.199 24.796 56 56 56h56c4.796 0 8 3.199 8 8 0 4.796-3.204 8-8 8h-184c-31.204 0-56 24.796-56 56 0 31.199 24.796 56 56 56h368v-16h-368c-22.403 0-40-17.602-40-40zm0 0"/><path d="M245.602 288.102h48v-16h-48c-13.602 0-24 10.398-24 24 0 13.597 10.398 24 24 24h56c22.398 0 40 17.597 40 40 0 22.398-17.602 40-40 40h-184c-13.602 0-24 10.398-24 24 0 13.597 10.398 24 24 24h336v-16h-336c-4.801 0-8-3.204-8-8 0-4.801 3.199-8 8-8h184c31.199 0 56-24.801 56-56 0-31.204-24.801-56-56-56h-56c-4.801 0-8-3.204-8-8 0-4.801 3.199-8 8-8zm0 0"/></svg>