<svg height="486pt" viewBox="0 -3 486.05752 486" width="486pt" xmlns="http://www.w3.org/2000/svg"><path d="m200 386.96875v-99.199219h16v92c0 13.597657 10.398438 25.597657 24 27.199219v48.800781c0 13.597657 10.398438 24 24 24h144c13.601562 0 24-10.402343 24-24v-72c0-13.601562-10.398438-24-24-24h-136v-54.402343l110.398438 38.402343h25.601562c13.601562 0 24-10.402343 24-24v-160c0-13.601562-10.398438-24-24-24h-25.601562l-36.796876 12.800781c20.796876-58.402343-10.402343-122.402343-68.800781-142.402343-58.402343-20-122.402343 10.402343-142.402343 68.800781-.796876 1.601562-.796876 3.199219-1.597657 4.800781h-132.800781v368h139.199219zm-56 33.601562v-28.800781h28.800781zm56-148.800781c-4.800781 0-8-3.199219-8-8v-48c0-4.800781 3.199219-8 8-8h16v64zm32-66.402343 136-48v164l-136-48zm176 258.402343h-144c-4.800781 0-8-3.199219-8-8v-51.199219c4-1.601562 7.199219-4 9.601562-7.203124l70.398438 35.203124 80-43.203124v66.402343c0 4.800781-3.199219 8-8 8zm-.800781-88-71.199219 39.199219-64-32c0-.800781 0-1.601562 0-3.199219v-4zm-151.199219-16v20c0 6.398438-5.601562 12-12 12s-12-5.601562-12-12v-88.800781l24 8zm152-208c4.800781 0 8 3.199219 8 8v160c0 4.800781-3.199219 8-8 8h-22.398438l-1.601562-.800781v-174.398438l1.601562-.800781zm-168-136c52.800781 0 96 43.199219 96 96 0 15.199219-4 30.398438-10.398438 44l-103.203124 36h-22.398438c-3.199219 0-6.398438.800781-9.601562 2.398438-45.597657-27.199219-60-86.398438-32-132 16.800781-28.800781 48-46.398438 81.601562-46.398438zm-110.398438 80c-4.800781 31.199219 4 64 24.796876 88h-138.398438v-88zm-113.601562 104h154.398438c2.402343 1.597657 4.800781 4 8 5.597657-1.597657 3.203124-2.398438 6.402343-2.398438 10.402343v48c0 6.398438 3.199219 13.597657 8 17.597657v94.402343h-56v56h-112zm0 0"/><path d="m442.5 137.953125 32.242188-32.242187 11.316406 11.3125-32.246094 32.242187zm0 0"/><path d="m448 271.769531h32v16h-32zm0 0"/><path d="m448 191.769531h32v16h-32zm0 0"/><path d="m208 47.769531v128l85.601562-64zm16 32 42.398438 32-42.398438 32zm0 0"/><path d="m32 215.769531h88v16h-88zm0 0"/><path d="m32 247.769531h136v16h-136zm0 0"/><path d="m32 279.769531h136v16h-136zm0 0"/><path d="m32 311.769531h136v16h-136zm0 0"/><path d="m32 343.769531h136v16h-136zm0 0"/><path d="m442.5 341.585938 11.3125-11.3125 32.242188 32.242187-11.3125 11.316406zm0 0"/><path d="m32 375.769531h80v16h-80zm0 0"/><path d="m408 23.769531h16v24h-16zm0 0"/><path d="m424 47.769531h24v16h-24zm0 0"/><path d="m408 63.769531h16v24h-16zm0 0"/><path d="m384 47.769531h24v16h-24zm0 0"/></svg>