<svg height="480pt" viewBox="0 0 480 480" width="480pt" xmlns="http://www.w3.org/2000/svg"><path d="m448 373.601562v-269.601562c0-13.601562-10.398438-24-24-24h-192v16h192c4.800781 0 8 3.199219 8 8v264h-384v-136h-16v141.601562l-28 41.597657c-2.398438 4-4 8.800781-4 13.601562v27.199219c0 13.601562 10.398438 24 24 24h432c13.601562 0 24-10.398438 24-24v-27.199219c0-4.800781-1.601562-9.601562-4-13.601562zm-12 10.398438 21.601562 32h-174.402343l-8 16h-70.398438l-8-16h-173.601562l21.601562-32zm20 80h-432c-4.800781 0-8-3.199219-8-8v-24h171.199219l8 16h89.601562l8-16h171.199219v24c0 4.800781-3.199219 8-8 8zm0 0"/><path d="m108 232h132v-16c-13.601562 0-24-10.398438-24-24v-84c0-60-48-108-108-108s-108 48-108 108v16c0 60 48 108 108 108zm-92-124c0-51.199219 40.800781-92 92-92s92 40.800781 92 92v84c0 8.800781 3.199219 16.800781 8 24h-100c-50.398438 0-92-41.601562-92-92zm0 0"/><path d="m248 280v72h160v-72c0-12.800781-8-24.800781-20-29.601562 7.199219-15.199219 8-32 4-48l-5.601562-21.597657c-8.796876-32-41.597657-51.199219-74.398438-42.402343-20.800781 5.601562-36.800781 21.601562-42.398438 42.402343l-5.601562 21.597657c-4 16-3.199219 32.800781 4 48-12 4.800781-20 16.800781-20 29.601562zm31.199219-73.601562 5.601562-21.597657c6.398438-24 31.199219-37.601562 54.398438-31.199219 15.199219 4 27.199219 16 31.199219 31.199219l5.601562 21.597657c4 14.402343 1.601562 28.800781-5.601562 41.601562h-2.398438c-8 0-15.199219-6.398438-16-14.398438l4-7.203124c2.398438-5.597657 4-12 4-17.597657v-8.800781c0-17.601562-14.398438-32-32-32s-32 14.398438-32 32v8.800781c0 6.398438 1.601562 12 4 17.597657l4 7.203124c-.800781 8-8 14.398438-16 14.398438h-3.199219c-7.199219-12.800781-9.601562-28-5.601562-41.601562zm48.800781 56.800781-17.601562-8.800781c5.601562-5.597657 9.601562-14.398438 9.601562-22.398438v-1.601562l-5.601562-11.199219c-1.597657-3.199219-2.398438-7.199219-2.398438-10.398438v-8.800781c0-8.800781 7.199219-16 16-16s16 7.199219 16 16v8.800781c0 4-.800781 7.199219-2.398438 10.398438l-5.601562 11.199219v1.601562c0 8.800781 3.199219 16.800781 9.601562 22.398438zm-64 16.800781c0-8.800781 7.199219-16 16-16h8c1.601562 0 3.199219 0 4.800781-.800781l27.199219 13.601562v43.199219h16v-43.199219l27.199219-13.601562c1.601562 0 3.199219.800781 4.800781.800781h8c8.800781 0 16 7.199219 16 16v56h-128zm0 0"/><path d="m352 288h24v16h-24zm0 0"/><path d="m48 56h120v16h-120zm0 0"/><path d="m48 88h120v16h-120zm0 0"/><path d="m48 120h120v16h-120zm0 0"/><path d="m48 152h80v16h-80zm0 0"/><path d="m72 280h136v16h-136zm0 0"/><path d="m72 320h136v16h-136zm0 0"/></svg>