<svg height="480pt" viewBox="0 -60 480 480" width="480pt" xmlns="http://www.w3.org/2000/svg"><path d="m448 312v-288c0-13.601562-10.398438-24-24-24h-368c-13.601562 0-24 10.398438-24 24v288h-32v24c0 13.601562 10.398438 24 24 24h432c13.601562 0 24-10.398438 24-24v-24zm-216-96h-184v-136h184zm16-136h184v136h-184zm-192-64h368c4.800781 0 8 3.199219 8 8v40h-384v-40c0-4.800781 3.199219-8 8-8zm-8 216h384v80h-384zm416 104c0 4.800781-3.199219 8-8 8h-432c-4.800781 0-8-3.199219-8-8v-8h448zm0 0"/><path d="m64 32h16v16h-16zm0 0"/><path d="m96 32h16v16h-16zm0 0"/><path d="m128 32h16v16h-16zm0 0"/><path d="m160 32h256v16h-256zm0 0"/><path d="m64 248h96v16h-96zm0 0"/><path d="m256 248h96v16h-96zm0 0"/><path d="m69.601562 181.601562 26.398438-26.402343 24 24 40-40 24 24 37.601562-37.597657-11.203124-11.203124-26.398438 26.402343-24-24-40 40-24-24-37.601562 37.597657zm0 0"/><path d="m352 120v16c13.601562 0 24 10.398438 24 24s-10.398438 24-24 24-24-10.398438-24-24h-16c0 22.398438 17.601562 40 40 40s40-17.601562 40-40-17.601562-40-40-40zm0 0"/><path d="m64 280h96v16h-96zm0 0"/><path d="m256 280h96v16h-96zm0 0"/><path d="m192 280h32v16h-32zm0 0"/><path d="m384 280h32v16h-32zm0 0"/><path d="m336 96h-8c-22.398438 0-40 17.601562-40 40v8h48zm-16 32h-14.398438c2.398438-7.199219 8-12 14.398438-14.398438zm0 0"/><path d="m192 248h32v16h-32zm0 0"/><path d="m384 248h32v16h-32zm0 0"/></svg>