<svg height="480pt" viewBox="0 0 480 480" width="480pt" xmlns="http://www.w3.org/2000/svg"><path d="m208 240h-16c0 48.800781-39.199219 88-88 88s-88-39.199219-88-88 39.199219-88 88-88v-16c-57.601562 0-104 46.398438-104 104s46.398438 104 104 104 104-46.398438 104-104zm0 0"/><path d="m376 136c-57.601562 0-104 46.398438-104 104h16c0-48.800781 39.199219-88 88-88s88 39.199219 88 88-39.199219 88-88 88v16c57.601562 0 104-46.398438 104-104s-46.398438-104-104-104zm0 0"/><path d="m408 272v-8h-16v8c0 4.800781-3.199219 8-8 8h-16c-4.800781 0-8-3.199219-8-8v-8h16v-16h-16v-16h16v-16h-16v-8c0-4.800781 3.199219-8 8-8h16c4.800781 0 8 3.199219 8 8v8h16v-8c0-13.601562-10.398438-24-24-24h-16c-13.601562 0-24 10.398438-24 24v8h-16v16h16v16h-16v16h16v8c0 13.601562 10.398438 24 24 24h16c13.601562 0 24-10.398438 24-24zm0 0"/><path d="m240 272v16c48.800781 0 88 39.199219 88 88s-39.199219 88-88 88-88-39.199219-88-88h-16c0 57.601562 46.398438 104 104 104s104-46.398438 104-104-46.398438-104-104-104zm0 0"/><path d="m240 208v-16c-48.800781 0-88-39.199219-88-88s39.199219-88 88-88 88 39.199219 88 88h16c0-57.601562-46.398438-104-104-104s-104 46.398438-104 104 46.398438 104 104 104zm0 0"/><path d="m272 320h-16v13.601562l-16 20.796876-16-20.796876v-13.601562h-16v18.398438l22.398438 29.601562h-14.398438v16h16v16h-16v16h16v16h16v-16h16v-16h-16v-16h16v-16h-14.398438l22.398438-29.601562zm0 0"/><path d="m272 80v-8c0-13.601562-10.398438-24-24-24v-16h-16v16c-13.601562 0-24 10.398438-24 24v16c0 13.601562 10.398438 24 24 24h16c4.800781 0 8 3.199219 8 8v16c0 4.800781-3.199219 8-8 8h-16c-4.800781 0-8-3.199219-8-8v-8h-16v8c0 13.601562 10.398438 24 24 24v16h16v-16c13.601562 0 24-10.398438 24-24v-16c0-13.601562-10.398438-24-24-24h-16c-4.800781 0-8-3.199219-8-8v-16c0-4.800781 3.199219-8 8-8h16c4.800781 0 8 3.199219 8 8v8zm0 0"/><path d="m80 208v24h-8v16h8v32h-8v16h64v-16h-40v-32h24v-16h-24v-24c0-4.800781 3.199219-8 8-8h8c4.800781 0 8 3.199219 8 8v8h16v-8c0-13.601562-10.398438-24-24-24h-8c-13.601562 0-24 10.398438-24 24zm0 0"/></svg>