<svg height="480pt" viewBox="0 0 480 480" width="480pt" xmlns="http://www.w3.org/2000/svg"><path d="m360 240c-66.398438 0-120 53.601562-120 120s53.601562 120 120 120 120-53.601562 120-120-53.601562-120-120-120zm0 224c-29.601562 0-57.601562-12.800781-77.601562-34.398438l25.601562-44.800781c.800781-1.601562 2.398438-2.402343 4-3.199219l26.398438-10.402343c8-3.199219 12-12.800781 8.800781-20.800781 0-.796876 0-.796876-.800781-1.597657l-10.398438-22.402343v-6.398438c0-13.601562 10.398438-24 24-24s24 10.398438 24 24v6.398438l-11.199219 22.402343c-4 8-.800781 17.597657 7.199219 21.597657.800781 0 .800781 0 1.601562.800781l26.398438 10.402343c1.601562.796876 3.199219 1.597657 4 3.199219l25.601562 44.800781c-20 21.597657-48 34.398438-77.601562 34.398438zm88-48.800781-22.398438-38.398438c-2.402343-4.800781-7.203124-8-12-10.402343l-26.402343-10.398438 12.800781-25.601562v-10.398438c0-22.398438-17.601562-40-40-40s-40 17.601562-40 40v9.601562l12.800781 25.597657-26.402343 10.402343c-4.796876 2.398438-9.597657 5.597657-12 10.398438l-22.398438 39.199219c-30.398438-48-16-112.800781 32-143.199219s112.800781-16.800781 143.199219 32c22.402343 34.398438 22.402343 77.601562.800781 111.199219zm0 0"/><path d="m104 456v-24h128v-16h-128v-368h272v176h16v-200c0-13.601562-10.398438-24-24-24h-256c-13.601562 0-24 10.398438-24 24v432c0 13.601562 10.398438 24 24 24h160v-16h-160c-4.800781 0-8-3.199219-8-8zm8-440h256c4.800781 0 8 3.199219 8 8v8h-272v-8c0-4.800781 3.199219-8 8-8zm0 0"/><path d="m184 64h112v16h-112zm0 0"/><path d="m216 112h144v16h-144zm0 0"/><path d="m216 144h80v16h-80zm0 0"/><path d="m216 208h144v16h-144zm0 0"/><path d="m216 240h56v16h-56zm0 0"/><path d="m56 104h-16c-8.800781 0-16 7.199219-16 16v267.199219l24 24 24-24v-267.199219c0-8.800781-7.199219-16-16-16zm0 16v16h-16v-16zm0 32v200h-16v-200zm-8 236.800781-8-8v-12.800781h16v12.800781zm0 0"/><path d="m0 424h64v16h-64zm0 0"/><path d="m200 168h-16v8h-48v-48h16v-16h-16c-8.800781 0-16 7.199219-16 16v48c0 8.800781 7.199219 16 16 16h48c8.800781 0 16-7.199219 16-16zm0 0"/><path d="m146.542969 154.140625 40.164062-40.160156 11.3125 11.3125-40.164062 40.164062zm0 0"/><path d="m200 264h-16v8h-48v-48h16v-16h-16c-8.800781 0-16 7.199219-16 16v48c0 8.800781 7.199219 16 16 16h48c8.800781 0 16-7.199219 16-16zm0 0"/><path d="m146.542969 250.140625 40.160156-40.160156 11.316406 11.3125-40.164062 40.164062zm0 0"/><path d="m120 320v48c0 8.800781 7.199219 16 16 16h48c8.800781 0 16-7.199219 16-16v-8h-16v8h-48v-48h16v-16h-16c-8.800781 0-16 7.199219-16 16zm0 0"/><path d="m146.542969 346.140625 40.160156-40.164063 11.316406 11.316407-40.164062 40.160156zm0 0"/></svg>