<svg width="100" height="100" viewBox="0 0 100 100" fill="none" xmlns="http://www.w3.org/2000/svg">
<path d="M87.5 96.875V85L87.6562 84.8438L89.5312 82.9688C91.4062 81.0938 91.4062 78.125 89.5312 76.4062L87.5 74.375V70.3125C87.5 63.125 82.6562 56.875 75.625 55.1562L65 52.5C67.3437 50.4687 68.5938 47.5 68.5938 44.375V42.9688L74.0625 39.6875C75.4688 38.9062 76.4063 37.3438 76.4063 35.625V33.4375C76.4063 30.7812 74.375 28.75 71.7188 28.75C71.4063 28.75 71.0938 28.75 70.7812 28.9062L69.0625 29.2188L71.25 20C72.5 14.375 69.2188 8.59375 63.5938 7.03125L50 3.125L36.25 7.03125C30.625 8.59375 27.3437 14.375 28.5937 20L30.7813 29.2188L29.0625 28.9062C26.5625 28.4375 24.0625 30 23.5938 32.6562C23.5938 32.9688 23.4375 33.2812 23.4375 33.5938V35.7812C23.4375 37.5 24.375 38.9062 25.7812 39.8438L31.25 43.125V44.5312C31.25 47.6562 32.6562 50.625 34.8437 52.6562L24.2188 55.3125C17.3438 56.875 12.5 63.125 12.5 70.3125V96.875H87.5ZM65.625 92.0312C65.625 91.5625 65.7812 91.0938 66.0938 90.7812L76.5625 80.3125L79.0625 82.8125L68.5938 93.2812C67.9688 93.9062 66.875 93.9062 66.0938 93.2812C65.7812 92.9688 65.625 92.5 65.625 92.0312ZM84.375 93.75H72.5L81.25 85C82.0312 85.7812 83.2812 86.25 84.375 86.25V93.75ZM87.3438 80.7812L85.4688 82.6562C84.8438 83.2812 83.9062 83.2812 83.2812 82.6562L75.1562 74.5312C74.5312 73.9062 74.5312 72.9688 75.1562 72.3438L77.0312 70.4688C77.6562 69.8438 78.5938 69.8438 79.2188 70.4688L87.3438 78.5938C87.9688 79.2188 87.9688 80.1562 87.3438 80.7812ZM65.625 41.5625L62.5 45.1562C60.4688 47.5 57.0312 47.8125 54.6875 45.7812C54.375 45.4688 54.0625 45.1562 53.75 44.8438C52.1875 42.8125 49.375 42.1875 47.1875 43.75C46.7188 44.0625 46.4062 44.375 46.0938 44.8438C44.375 47.3438 40.7812 47.9688 38.4375 46.0938C38.125 45.7812 37.8125 45.4688 37.5 45.1562L34.375 41.5625V30C34.375 25.625 37.8125 22.1875 42.1875 22.1875C42.6562 22.1875 43.125 22.1875 43.5938 22.3438L48.125 23.125C49.375 23.4375 50.7812 23.4375 52.0312 23.125L56.5625 22.3438C60.7812 21.5625 64.8438 24.375 65.625 28.5937C65.7812 29.0625 65.7812 29.5313 65.7812 30V41.5625H65.625ZM35.1562 47.1875C36.7188 49.0625 39.2188 50.1562 41.7188 50.1562H42.1875C44.8438 50 47.3438 48.75 48.9062 46.5625C49.375 45.9375 50.4688 45.7812 51.0938 46.25L51.4063 46.5625C54.2188 50.4688 59.5312 51.4062 63.4375 48.5938C64.0625 48.125 64.5312 47.6562 65 47.1875L65.3125 46.875C64.6875 48.75 63.4375 50.3125 61.7188 51.25L54.6875 55.1562C51.875 56.7188 48.4375 56.7188 45.7812 55.1562L38.75 51.25C37.0312 50.3125 35.7812 48.75 35.1562 46.875V47.1875ZM44.0625 57.8125C47.8125 59.8438 52.3438 59.8438 56.0938 57.8125L60.4688 55.4688L60 57.6563C58.75 63.125 53.4375 66.5625 47.9688 65.3125C44.0625 64.5312 41.0937 61.4063 40.3125 57.6563L39.8438 55.4688L44.0625 57.8125ZM71.5625 32.0312C72.3438 31.875 73.2812 32.3437 73.4375 33.2812V33.5938V35.7812C73.4375 36.4062 73.125 36.875 72.6562 37.1875L68.75 39.375V32.5L71.5625 32.0312ZM37.1875 10L50 6.25L62.8125 10C66.875 11.0938 69.2188 15.1562 68.2812 19.2188L67.1875 24.375C64.8438 20.4688 60.3125 18.4375 55.9375 19.2188L51.4063 20C50.4688 20.1562 49.5312 20.1562 48.5938 20L44.0625 19.2188C39.5313 18.4375 35.1562 20.4688 32.8125 24.375L31.7187 19.375C30.7812 15.1562 33.125 11.0938 37.1875 10ZM27.3438 37.0312C26.875 36.7188 26.5625 36.25 26.5625 35.625V33.4375C26.5625 32.5 27.1875 31.875 28.125 31.875H28.4375L31.25 32.5V39.375L27.3438 37.0312ZM15.625 70.3125C15.625 64.5312 19.5313 59.5312 25.1563 58.125L36.4062 55.3125L37.0313 58.2812C38.5938 65.4688 45.625 70 52.8125 68.2812C57.8125 67.1875 61.7188 63.2812 62.8125 58.2812L63.4375 55.3125L74.6875 58.125C80.3125 59.5312 84.2188 64.5312 84.2188 70.3125V71.25L81.25 68.2812C79.375 66.4062 76.4062 66.4062 74.6875 68.2812L72.8125 70.1562C70.9375 72.0312 70.9375 75 72.8125 76.7188L74.2188 78.125L63.75 88.5938C62.3438 90 61.875 92.0312 62.6562 93.75H32.8125V73.4375H29.6875V93.75H15.625V70.3125Z" fill="#5F6FFF"/>
<path d="M57.3437 87.0313L68.9062 75.4687C70.7812 73.5937 70.7812 70.4688 68.9062 68.5938C67.9687 67.6563 66.7187 67.1875 65.4687 67.1875C64.2187 67.1875 62.9687 67.6563 62.0312 68.5938L50.4687 80.1562L49.375 81.25L42.1875 88.4375L53.75 90.7812L57.3437 87.0313ZM64.2187 70.7812C64.8437 70.1562 65.9375 70.1562 66.7187 70.7812C67.0312 71.0937 67.1875 71.5625 67.1875 72.0312C67.1875 72.5 67.0312 72.9688 66.7187 73.2813L56.25 83.75L53.75 81.25L64.2187 70.7812ZM48.4375 86.5625L51.5625 83.4375L54.0625 85.9375L52.6562 87.3438L48.4375 86.5625Z" fill="#5F6FFF"/>
</svg>
