<svg height="480pt" viewBox="0 -8 480 480" width="480pt" xmlns="http://www.w3.org/2000/svg"><path d="m144 160h256c44 0 80-36 80-80s-36-80-80-80h-256c-44 0-80 36-80 80s36 80 80 80zm0-144h256c35.199219 0 64 28.800781 64 64s-28.800781 64-64 64h-256c-35.199219 0-64-28.800781-64-64s28.800781-64 64-64zm0 0"/><path d="m144 288h-120c-4.800781 0-8-3.199219-8-8v-152c0-4.800781 3.199219-8 8-8h24v-16h-24c-13.601562 0-24 10.398438-24 24v152c0 13.601562 10.398438 24 24 24h120zm0 0"/><path d="m176 176h16v48h-16zm0 0"/><path d="m264 296h-40v-32c0-13.601562-10.398438-24-24-24s-24 10.398438-24 24v48h-16c-8.800781 0-16 7.199219-16 16v41.601562l24 56v38.398438h104v-39.199219l8-31.199219v-81.601562c0-8.800781-7.199219-16-16-16zm-80 152v-16h72v16zm80-56.800781-6.398438 24.800781h-76.800781l-20.800781-49.601562v-38.398438h16v32h16v-96c0-4.800781 3.199219-8 8-8s8 3.199219 8 8v80h16v-32h40zm0 0"/><path d="m88 176v36.800781l-10.398438-10.402343-11.203124 11.203124 29.601562 29.597657 29.601562-29.597657-11.203124-11.203124-10.398438 10.402343v-36.800781zm0 0"/><path d="m48 240v16c0 8.800781 7.199219 16 16 16h64c8.800781 0 16-7.199219 16-16v-16h-16v16h-64v-16zm0 0"/><path d="m385.601562 268 20.796876-76h25.601562v-16h-25.601562c-7.199219 0-13.597657 4.800781-15.199219 12l-6.398438 20h-62.402343c-8.796876 0-16 7.199219-16 16 0 1.601562 0 3.199219.800781 4l11.199219 40c1.601562 7.199219 8 11.199219 15.203124 12h36c7.199219 0 13.597657-4.800781 16-12zm-16-4h-36l-11.203124-40h58.402343zm0 0"/><path d="m328 296h16v16h-16zm0 0"/><path d="m360 296h16v16h-16zm0 0"/><path d="m456 320c0 4.800781-3.199219 8-8 8h-152v16h152c13.601562 0 24-10.398438 24-24v-160h-16zm0 0"/><path d="m248 176h16v104h-16zm0 0"/><path d="m216 128h112c8.800781 0 16-7.199219 16-16v-64c0-8.800781-7.199219-16-16-16h-112c-8.800781 0-16 7.199219-16 16v64c0 8.800781 7.199219 16 16 16zm0-16v-57.601562l56 35.203124 56-35.203124v57.601562zm20-64h72l-36 22.398438zm0 0"/></svg>