<svg width="100" height="100" viewBox="0 0 100 100" fill="none" xmlns="http://www.w3.org/2000/svg">
<g clip-path="url(#clip0)">
<path d="M58.3333 64.8332L51.6667 59.1666L50 40V31.6666H40V39.8332L38.833 48.5001L28.3333 39.8332V63.1665L23.3333 58.9998L21.6667 26.6666V18.3333H8.33333V26.4998L6.8335 45.4997L0 39.8332V93.3333H3.33333V46.8335L28.3333 67.5V93.3333H31.6667V46.8335L58.3333 68.9998V93.3333H61.6667V43.3333H93.3333V40H61.6667V35H96.6667V96.6666H0V100H100V31.6666H58.3333V64.8332ZM18.3333 21.6666V25H11.6667V21.6666H18.3333ZM11.4998 28.3333H18.3333L19.6663 56.167L10 47.9997L11.4998 28.3333ZM46.6667 35V38.3333H43.3333V35H46.6667ZM43.1665 41.6666H46.8335L47.9997 56.167L41.8335 51.0001L43.1665 41.6666Z" fill="#5F6FFF"/>
<path d="M20 0C16.333 0 13.3333 2.99967 13.3333 6.66667V15H16.6666V6.66667C16.6666 4.83317 18.1665 3.33333 20 3.33333C21.8335 3.33333 23.3333 4.83317 23.3333 6.66667V8.33333C23.3333 12.0003 26.333 15 30 15C33.667 15 36.6666 12.0003 36.6666 8.33333V6.66667C36.6666 4.83317 38.1665 3.33333 40 3.33333C41.8335 3.33333 43.3333 4.83317 43.3333 6.66667V8.33333C43.3333 12.0003 46.333 15 50 15C53.667 15 56.6666 12.0003 56.6666 8.33333V6.66667H53.3333V8.33333C53.3333 10.1668 51.8335 11.6667 50 11.6667C48.1665 11.6667 46.6666 10.1668 46.6666 8.33333V6.66667C46.6666 2.99967 43.667 0 40 0C36.333 0 33.3333 2.99967 33.3333 6.66667V8.33333C33.3333 10.1668 31.8335 11.6667 30 11.6667C28.1665 11.6667 26.6666 10.1668 26.6666 8.33333V6.66667C26.6666 2.99967 23.667 0 20 0Z" fill="#5F6FFF"/>
<path d="M53.3333 0H56.6666V3.33333H53.3333V0Z" fill="#5F6FFF"/>
<path d="M61.6666 16.6667C58.833 16.6667 56.6666 18.833 56.6666 21.6667V23.3334C56.6666 24.3335 56.0001 25 55 25C53.9998 25 53.3333 24.3335 53.3333 23.3334V21.6667C53.3333 18.833 51.167 16.6667 48.3333 16.6667C45.4997 16.6667 43.3333 18.833 43.3333 21.6667V28.3334H46.6666V21.6667C46.6666 20.6665 47.3332 20 48.3333 20C49.3335 20 50 20.6665 50 21.6667V23.3334C50 26.167 52.1663 28.3334 55 28.3334C57.8336 28.3334 60 26.167 60 23.3334V21.6667C60 20.6665 60.6665 20 61.6666 20C62.6668 20 63.3333 20.6665 63.3333 21.6667V23.3334C63.3333 26.167 65.4997 28.3334 68.3333 28.3334C71.167 28.3334 73.3333 26.167 73.3333 23.3334V21.6667C73.3333 20.6665 73.9998 20 75 20H78.3333V16.6667H75C72.1663 16.6667 70 18.833 70 21.6667V23.3334C70 24.3335 69.3335 25 68.3333 25C67.3331 25 66.6666 24.3335 66.6666 23.3334V21.6667C66.6666 18.833 64.5003 16.6667 61.6666 16.6667Z" fill="#5F6FFF"/>
<path d="M81.6667 16.6667H85V20H81.6667V16.6667Z" fill="#5F6FFF"/>
<path d="M65 46.6667H93.3333V50H65V46.6667Z" fill="#5F6FFF"/>
<path d="M65 53.3333H93.3333V56.6666H65V53.3333Z" fill="#5F6FFF"/>
<path d="M65 66.6667H68.3333V73.3334H65V66.6667Z" fill="#5F6FFF"/>
<path d="M73.3333 66.6667H76.6666V73.3334H73.3333V66.6667Z" fill="#5F6FFF"/>
<path d="M81.6667 66.6667H85V73.3334H81.6667V66.6667Z" fill="#5F6FFF"/>
<path d="M65 76.6667H68.3333V83.3334H65V76.6667Z" fill="#5F6FFF"/>
<path d="M73.3333 76.6667H76.6666V83.3334H73.3333V76.6667Z" fill="#5F6FFF"/>
<path d="M81.6667 76.6667H85V83.3334H81.6667V76.6667Z" fill="#5F6FFF"/>
<path d="M65 86.6667H68.3333V93.3334H65V86.6667Z" fill="#5F6FFF"/>
<path d="M73.3333 86.6667H76.6666V93.3334H73.3333V86.6667Z" fill="#5F6FFF"/>
<path d="M81.6667 86.6667H85V93.3334H81.6667V86.6667Z" fill="#5F6FFF"/>
<path d="M48.3333 70H51.6666V75H48.3333V70Z" fill="#5F6FFF"/>
<path d="M48.3333 78.3333H51.6666V86.6666H48.3333V78.3333Z" fill="#5F6FFF"/>
<path d="M18.3333 70H21.6666V75H18.3333V70Z" fill="#5F6FFF"/>
<path d="M18.3333 78.3333H21.6666V86.6666H18.3333V78.3333Z" fill="#5F6FFF"/>
<path d="M65 60H93.3333V63.3333H65V60Z" fill="#5F6FFF"/>
<path d="M90 66.6667H93.3333V73.3334H90V66.6667Z" fill="#5F6FFF"/>
<path d="M90 76.6667H93.3333V83.3334H90V76.6667Z" fill="#5F6FFF"/>
<path d="M90 86.6667H93.3333V93.3334H90V86.6667Z" fill="#5F6FFF"/>
</g>
<defs>
<clipPath id="clip0">
<rect width="100" height="100" fill="white"/>
</clipPath>
</defs>
</svg>
