<svg height="491pt" viewBox="0 -5 491.2 491" width="491pt" xmlns="http://www.w3.org/2000/svg"><path d="m325.601562 80.101562c13.597657 0 24-10.402343 24-24 0-13.601562-10.402343-24-24-24-13.601562 0-24 10.398438-24 24 0 13.597657 10.398438 24 24 24zm0-32c4.796876 0 8 3.199219 8 8 0 4.796876-3.203124 8-8 8-4.800781 0-8-3.203124-8-8 0-4.800781 3.199219-8 8-8zm0 0"/><path d="m404.800781 259.300781 75.199219 72.800781 11.199219-11.203124-86.398438-84-48 47.203124-103.199219-103.203124v-68.796876h16v32h176v-112h-32v-32h-176v180.796876l-104 104-48-48-85.601562 85.601562 11.199219 11.199219 74.402343-74.398438 36.796876 36.800781-122.398438 122.398438 11.199219 11.199219 234.402343-234.398438 234.398438 234.398438 11.199219-11.199219-123.199219-123.199219zm24.800781-211.199219v80h-144v-16h128v-64zm-32-32v80h-144v-80zm0 0"/><path d="m165.601562 80.101562h16v16h-16zm0 0"/><path d="m181.601562 96.101562h16v16h-16zm0 0"/><path d="m165.601562 112.101562h16v16h-16zm0 0"/><path d="m149.601562 96.101562h16v16h-16zm0 0"/><path d="m109.601562.101562h16v16h-16zm0 0"/><path d="m125.601562 16.101562h16v16h-16zm0 0"/><path d="m109.601562 32.101562h16v16h-16zm0 0"/><path d="m93.601562 16.101562h16v16h-16zm0 0"/><path d="m365.601562 48.101562h16v16h-16zm0 0"/><path d="m269.601562 48.101562h16v16h-16zm0 0"/><path d="m365.601562 168.101562h16v16h-16zm0 0"/><path d="m381.601562 184.101562h16v16h-16zm0 0"/><path d="m365.601562 200.101562h16v16h-16zm0 0"/><path d="m349.601562 184.101562h16v16h-16zm0 0"/><path d="m61.601562 120.101562h16v16h-16zm0 0"/><path d="m77.601562 136.101562h16v16h-16zm0 0"/><path d="m61.601562 152.101562h16v16h-16zm0 0"/><path d="m45.601562 136.101562h16v16h-16zm0 0"/><path d="m77.601562 424.101562c0-22.402343 17.597657-40 40-40h184c13.597657 0 24-10.402343 24-24 0-13.601562-10.402343-24-24-24h-56c-22.402343 0-40-17.601562-40-40 0-22.402343 17.597657-40 40-40h24v-16h-24c-31.203124 0-56 24.796876-56 56 0 31.199219 24.796876 56 56 56h56c4.796876 0 8 3.199219 8 8 0 4.796876-3.203124 8-8 8h-184c-31.203124 0-56 24.796876-56 56 0 31.199219 24.796876 56 56 56h368v-16h-368c-22.402343 0-40-17.601562-40-40zm0 0"/><path d="m245.601562 288.101562h48v-16h-48c-13.601562 0-24 10.398438-24 24 0 13.597657 10.398438 24 24 24h56c22.398438 0 40 17.597657 40 40 0 22.398438-17.601562 40-40 40h-184c-13.601562 0-24 10.398438-24 24 0 13.597657 10.398438 24 24 24h336v-16h-336c-4.800781 0-8-3.203124-8-8 0-4.800781 3.199219-8 8-8h184c31.199219 0 56-24.800781 56-56 0-31.203124-24.800781-56-56-56h-56c-4.800781 0-8-3.203124-8-8 0-4.800781 3.199219-8 8-8zm0 0"/></svg>