<svg height="480pt" viewBox="0 -16 480 480" width="480pt" xmlns="http://www.w3.org/2000/svg"><path d="m240 16c-7.199219-10.398438-19.199219-16-32-16h-208v448h480v-448h-208c-12.800781 0-24.800781 6.398438-32 16zm224 416h-448v-16h192c12.800781 0 24.800781-6.398438 32-16 7.199219 10.398438 19.199219 16 32 16h192zm0-32h-192c-13.601562 0-24-10.398438-24-24v-24h24v-68l12-8c22.398438-15.199219 36-40 36-66.398438v-1.601562c0-44-36-80-80-80s-80 36-80 80v1.601562c0 26.398438 13.601562 52 36 66.398438l12 8v68h24v24c0 13.601562-10.398438 24-24 24h-192v-384h192c13.601562 0 24 10.398438 24 24v24h16v-24c0-13.601562 10.398438-24 24-24h192zm-208-96h-32v-16h32zm-24-88h-8c-4.800781 0-8-3.199219-8-8s3.199219-8 8-8 8 3.199219 8 8zm29.601562 56h-13.601562v-40h8c13.601562 0 24-10.398438 24-24s-10.398438-24-24-24c-5.601562 0-12 2.398438-16 6.398438-9.601562-8.796876-24.800781-8-33.601562 1.601562-8.796876 9.601562-8 24.800781 1.601562 33.601562 4.800781 4 10.398438 6.398438 16 6.398438h8v40h-13.601562l-13.597657-9.601562c-17.601562-12-28.800781-32-28.800781-53.597657v-.800781c0-35.199219 28.800781-64 64-64s64 28.800781 64 64v1.601562c0 21.597657-10.398438 41.597657-28.800781 53.597657zm-13.601562-56v-8c0-4.800781 3.199219-8 8-8s8 3.199219 8 8-3.199219 8-8 8zm-24 104h32v16h-32zm0 0"/><path d="m232 80h16v32h-16zm0 0"/><path d="m161.363281 108.464844 13.316407-8.878906 15.972656 23.964843-13.3125 8.875zm0 0"/><path d="m123.589844 166.660156 8.875-13.3125 23.964844 15.976563-8.875 13.3125zm0 0"/><path d="m161.371094 307.535156 15.976562-23.964844 13.3125 8.875-15.976562 23.964844zm0 0"/><path d="m123.585938 249.34375 23.964843-15.972656 8.875 13.3125-23.960937 15.976562zm0 0"/><path d="m289.363281 123.527344 15.972657-23.964844 13.316406 8.875-15.976563 23.964844zm0 0"/><path d="m323.597656 169.339844 23.964844-15.972656 8.875 13.3125-23.964844 15.976562zm0 0"/><path d="m289.371094 292.472656 13.3125-8.875 15.976562 23.964844-13.3125 8.875zm0 0"/><path d="m323.59375 246.652344 8.875-13.316406 23.964844 15.976562-8.875 13.3125zm0 0"/><path d="m352 104h96v16h-96zm0 0"/><path d="m272 40h176v16h-176zm0 0"/><path d="m376 168h72v16h-72zm0 0"/><path d="m376 232h72v16h-72zm0 0"/><path d="m352 296h96v16h-96zm0 0"/><path d="m312 360h136v16h-136zm0 0"/><path d="m32 104h96v16h-96zm0 0"/><path d="m32 40h176v16h-176zm0 0"/><path d="m32 168h72v16h-72zm0 0"/><path d="m32 232h72v16h-72zm0 0"/><path d="m32 296h96v16h-96zm0 0"/><path d="m32 360h136v16h-136zm0 0"/></svg>