<svg height="480pt" viewBox="-21 0 479 480" width="480pt" xmlns="http://www.w3.org/2000/svg"><path d="m198.273438 352c-17.597657 0-32 14.398438-32 32s14.402343 32 32 32c17.601562 0 32-14.398438 32-32s-14.398438-32-32-32zm0 48c-8.800782 0-16-7.199219-16-16s7.199218-16 16-16c8.800781 0 16 7.199219 16 16s-7.199219 16-16 16zm0 0"/><path d="m414.273438 32h-120v16h120c4.800781 0 8 3.199219 8 8v112c0 4.800781-3.199219 8-8 8h-43.199219l-20.800781 20.800781-20.800782-20.800781h-31.199218c-2.398438-11.199219-4-23.199219-4-34.398438v-45.601562c0-52.800781-43.199219-96-96-96-52.800782 0-96 43.199219-96 96v45.601562c0 21.597657-4.800782 43.199219-13.597657 63.199219l-10.402343 22.398438-44.800782 25.601562c-6.398437 4-11.199218 10.398438-12 18.398438l-20.796875 182.402343c-1.601562 12.796876 8 24.796876 20.796875 26.398438h2.402344 348c13.597656 0 24-10.398438 24-24 0-.800781 0-1.601562 0-2.398438l-20.800781-182.402343c-.800781-7.199219-5.601563-14.398438-12-18.398438l-44.800781-25.601562-10.398438-23.199219c-1.601562-4-3.199219-8-4.800781-12h20l27.199219 27.199219 27.199218-27.199219h36.800782c13.601562 0 24-10.398438 24-24v-112c0-13.601562-10.398438-24-24-24zm-311.199219 179.199219c9.601562-21.597657 15.199219-45.597657 15.199219-69.597657v-45.601562c0-44 36-80 80-80s80 36 80 80v45.601562c0 24 4.800781 48 15.199218 69.597657l15.203125 33.601562c1.597657 4 0 8.800781-4 10.398438-.800781.800781-2.402343.800781-3.203125.800781h-42.398437c-4 0-7.199219-2.398438-8-6.398438l-12.800781-66.402343c10.402343-10.398438 16-24.800781 16-39.199219v-44.800781l-16.800782-8c-24.796875-12-53.597656-12-78.398437 0l-16.800781 8v44.800781c0 14.398438 5.601562 28.800781 16 39.199219l-13.597657 66.402343c-.800781 4-4 6.398438-8 6.398438h-42.402343c-4.800782 0-8-3.199219-8-8 0-.800781 0-2.398438.800781-3.199219zm84.800781 76.800781-21.601562-64.800781 5.601562-29.597657c16 8.796876 35.199219 8.796876 51.199219 0l5.601562 29.597657-20 64.800781zm10.398438-104c-22.398438 0-40-17.601562-40-40v-35.199219l8-4c20-10.402343 44-10.402343 64 0l8 4v35.199219c0 22.398438-17.597657 40-40 40zm-174.398438 280c-4.800781 0-8-3.199219-8-8v-.800781l20.800781-182.398438c0-2.402343 1.597657-4.800781 4-6.402343l29.597657-16.796876c.800781 12.796876 11.199218 22.398438 24 22.398438h42.402343c10.398438 0 20-7.199219 23.199219-17.601562l11.199219 33.601562h-92.800781c-13.597657 0-24 10.398438-24 24v152zm302.398438 0h-256v-152c0-4.800781 3.199218-8 8-8h240c4.800781 0 8 3.199219 8 8zm32.800781-191.199219 20.800781 182.398438c.800781 4-2.402344 8-7.199219 8.800781h-.800781-29.601562v-152c0-13.601562-10.398438-24-24-24h-92.800782l11.203125-33.601562c3.199219 10.402343 12 17.601562 23.199219 17.601562h42.398438c12.800781 0 23.199218-9.601562 24-22.398438l29.601562 16.796876c1.597656 1.601562 3.199219 4 3.199219 6.402343zm0 0"/><path d="m310.273438 72h96v16h-96zm0 0"/><path d="m310.273438 104h96v16h-96zm0 0"/><path d="m310.273438 136h96v16h-96zm0 0"/></svg>