<svg width="1185" height="320" fill="none" xmlns="http://www.w3.org/2000/svg"><path d="M424.609 101.25L450 180.391l25.312-79.141h36.094V215h-27.5v-26.562l2.656-54.376-27.5 80.938h-18.124l-27.579-81.016 2.657 54.454V215h-27.422V101.25h36.015zM575.312 215c-.937-1.719-1.77-4.245-2.5-7.578-4.843 6.094-11.614 9.14-20.312 9.14-7.969 0-14.74-2.395-20.312-7.187-5.573-4.844-8.36-10.911-8.36-18.203 0-9.167 3.386-16.094 10.156-20.781 6.771-4.688 16.615-7.032 29.532-7.032h8.125v-4.453c0-7.76-3.36-11.64-10.079-11.64-6.25 0-9.374 3.073-9.374 9.218h-26.329c0-8.177 3.464-14.817 10.391-19.922 6.979-5.104 15.859-7.656 26.641-7.656 10.781 0 19.297 2.63 25.547 7.891 6.25 5.26 9.453 12.474 9.609 21.641v37.421c.104 7.761 1.302 13.698 3.594 17.813V215h-26.329zm-16.484-17.188c3.281 0 5.99-.703 8.125-2.109 2.188-1.406 3.75-2.995 4.688-4.765v-13.516h-7.657c-9.166 0-13.75 4.114-13.75 12.344 0 2.395.808 4.349 2.422 5.859 1.615 1.458 3.672 2.187 6.172 2.187zm105-43.515l-8.672-.625c-8.281 0-13.594 2.604-15.937 7.812V215h-26.328v-84.531h24.687l.86 10.859c4.427-8.281 10.598-12.422 18.515-12.422 2.813 0 5.261.313 7.344.938l-.469 24.453zm43.438 29.219l-7.422 7.422V215h-26.328V94.922h26.328v63.75l2.656-3.516 19.844-24.687h31.562l-29.609 34.765L755.859 215h-30.156l-18.437-31.484zm92.89 33.046c-12.968 0-23.463-3.854-31.484-11.562-8.021-7.76-12.031-17.839-12.031-30.234v-2.188c0-8.646 1.588-16.276 4.765-22.89 3.229-6.615 7.917-11.719 14.063-15.313 6.146-3.646 13.437-5.469 21.875-5.469 11.875 0 21.25 3.698 28.125 11.094 6.875 7.344 10.312 17.604 10.312 30.781v10.235h-52.343c.937 4.739 2.994 8.463 6.171 11.172 3.177 2.708 7.292 4.062 12.344 4.062 8.333 0 14.844-2.917 19.531-8.75l12.032 14.219c-3.282 4.531-7.943 8.151-13.985 10.859-5.989 2.656-12.448 3.984-19.375 3.984zm-2.968-67.343c-7.709 0-12.292 5.104-13.75 15.312H810V162.5c.104-4.219-.964-7.474-3.203-9.766-2.24-2.343-5.443-3.515-9.609-3.515zm79.921-39.766v21.016h13.907v18.281h-13.907v38.672c0 3.177.573 5.39 1.719 6.64 1.146 1.25 3.412 1.876 6.797 1.876 2.604 0 4.792-.157 6.563-.469v18.828c-4.74 1.51-9.688 2.265-14.844 2.265-9.063 0-15.755-2.135-20.078-6.406-4.323-4.271-6.485-10.755-6.485-19.453V148.75H840v-18.281h10.781v-21.016h26.328zm58.125 68.672l14.063-47.656H977.5l-34.453 98.672-1.485 3.593c-4.895 10.938-13.541 16.407-25.937 16.407-3.437 0-7.057-.521-10.859-1.563V228.75h3.437c3.698 0 6.511-.547 8.438-1.641 1.979-1.041 3.437-2.942 4.375-5.703l2.109-5.625-29.375-85.312h28.125l13.359 47.656zm52.344 11.328c4.167 0 7.63 1.25 10.391 3.75 2.761 2.448 4.141 5.599 4.141 9.453 0 3.854-1.38 7.032-4.141 9.532-2.761 2.447-6.224 3.671-10.391 3.671-4.219 0-7.708-1.25-10.469-3.75-2.708-2.5-4.062-5.651-4.062-9.453 0-3.802 1.354-6.953 4.062-9.453 2.761-2.5 6.25-3.75 10.469-3.75zm76.402 1.797c0-2.24-1.17-4.036-3.51-5.391-2.35-1.354-6.8-2.76-13.36-4.218-6.56-1.459-11.98-3.36-16.25-5.703-4.27-2.396-7.53-5.287-9.77-8.672-2.24-3.386-3.36-7.266-3.36-11.641 0-7.76 3.21-14.141 9.61-19.141 6.41-5.052 14.8-7.578 25.16-7.578 11.15 0 20.1 2.526 26.88 7.578 6.77 5.052 10.15 11.693 10.15 19.922h-26.41c0-6.771-3.56-10.156-10.7-10.156-2.76 0-5.08.781-6.95 2.344-1.88 1.51-2.81 3.411-2.81 5.703 0 2.344 1.14 4.245 3.43 5.703 2.3 1.458 5.94 2.656 10.94 3.594 5.05.937 9.48 2.057 13.28 3.359 12.71 4.375 19.07 12.214 19.07 23.516 0 7.708-3.44 13.984-10.32 18.828-6.82 4.844-15.67 7.265-26.56 7.265-7.24 0-13.7-1.302-19.38-3.906-5.67-2.604-10.1-6.146-13.28-10.625-3.17-4.479-4.76-9.192-4.76-14.14h24.61c.1 3.906 1.4 6.77 3.9 8.593 2.5 1.771 5.71 2.657 9.61 2.657 3.6 0 6.28-.73 8.05-2.188 1.82-1.458 2.73-3.359 2.73-5.703zm88.13 14.609c-5.57 7.136-13.1 10.703-22.58 10.703-9.27 0-16.3-2.682-21.09-8.046-4.74-5.417-7.11-13.177-7.11-23.282v-54.765h26.33v54.922c0 7.239 3.51 10.859 10.54 10.859 6.04 0 10.34-2.161 12.89-6.484v-59.297h26.49V215h-24.69l-.78-9.141z" fill="#5F6FFF"/><g clip-path="url(#clip0)"><rect width="160" height="160" rx="40" transform="matrix(-.25882 .96593 -.96095 -.2767 324 40)" fill="#5F6FFF"/><path d="M241.732 160.614c15.52 16.134 15.255 42.399-.587 58.241l-84.282 84.282c-15.621 15.621-40.44 15.133-55.434-1.091L19.981 213.92c-14.994-16.224-14.486-42.039 1.135-57.66l84.291-84.29c15.839-15.84 41.074-15.084 55.962 1.674l39.864 44.87 40.499 42.1z" fill="#03D39F"/></g><defs><clipPath id="clip0"><path fill="#fff" d="M0 0h320v320H0z"/></clipPath></defs></svg>